<?xml version="1.0" standalone="no"?>
<!DOCTYPE svg PUBLIC "-//W3C//DTD SVG 20010904//EN"
 "http://www.w3.org/TR/2001/REC-SVG-20010904/DTD/svg10.dtd">
<svg version="1.0" xmlns="http://www.w3.org/2000/svg"
 width="900.000000pt" height="900.000000pt" viewBox="0 0 900.000000 900.000000"
 preserveAspectRatio="xMidYMid meet">

<g transform="translate(0.000000,900.000000) scale(0.100000,-0.100000)"
fill="#000000" stroke="none">
<path d="M1586 6525 c-11 -8 -15 -15 -9 -15 6 0 16 7 23 15 16 19 11 19 -14 0z"/>
<path d="M1390 6506 c0 -3 9 -10 20 -16 11 -6 20 -8 20 -6 0 3 -9 10 -20 16
-11 6 -20 8 -20 6z"/>
<path d="M1596 6502 c-10 -16 1 -32 22 -32 11 0 13 3 6 8 -6 4 -13 14 -16 22
-3 10 -6 11 -12 2z"/>
<path d="M1635 6500 c3 -5 11 -10 16 -10 6 0 7 5 4 10 -3 6 -11 10 -16 10 -6
0 -7 -4 -4 -10z"/>
<path d="M1785 6490 c-3 -5 -2 -10 4 -10 5 0 13 5 16 10 3 6 2 10 -4 10 -5 0
-13 -4 -16 -10z"/>
<path d="M1850 6490 c0 -5 5 -10 11 -10 5 0 7 5 4 10 -3 6 -8 10 -11 10 -2 0
-4 -4 -4 -10z"/>
<path d="M1812 6470 c-7 -11 -9 -20 -4 -20 10 0 32 22 32 32 0 15 -15 8 -28
-12z"/>
<path d="M1756 6465 c4 -8 8 -15 10 -15 2 0 4 7 4 15 0 8 -4 15 -10 15 -5 0
-7 -7 -4 -15z"/>
<path d="M1470 6460 c0 -6 7 -10 15 -10 8 0 15 2 15 4 0 2 -7 6 -15 10 -8 3
-15 1 -15 -4z"/>
<path d="M1886 6455 c4 -8 11 -15 16 -15 6 0 5 6 -2 15 -7 8 -14 15 -16 15 -2
0 -1 -7 2 -15z"/>
<path d="M1146 6451 c-4 -5 3 -7 14 -4 23 6 26 13 6 13 -8 0 -17 -4 -20 -9z"/>
<path d="M1708 6453 c6 -2 18 -2 25 0 6 3 1 5 -13 5 -14 0 -19 -2 -12 -5z"/>
<path d="M2040 6456 c0 -2 7 -6 15 -10 8 -3 15 -1 15 4 0 6 -7 10 -15 10 -8 0
-15 -2 -15 -4z"/>
<path d="M1448 6433 c7 -3 16 -2 19 1 4 3 -2 6 -13 5 -11 0 -14 -3 -6 -6z"/>
<path d="M1808 6423 c6 -2 18 -2 25 0 6 3 1 5 -13 5 -14 0 -19 -2 -12 -5z"/>
<path d="M1260 6405 c7 -9 15 -13 17 -11 7 7 -7 26 -19 26 -6 0 -6 -6 2 -15z"/>
<path d="M2080 6411 c0 -5 5 -13 10 -16 6 -3 10 -2 10 4 0 5 -4 13 -10 16 -5
3 -10 2 -10 -4z"/>
<path d="M1403 6403 c9 -2 23 -2 30 0 6 3 -1 5 -18 5 -16 0 -22 -2 -12 -5z"/>
<path d="M1623 6393 c15 -2 37 -2 50 0 12 2 0 4 -28 4 -27 0 -38 -2 -22 -4z"/>
<path d="M1448 6383 c7 -3 16 -2 19 1 4 3 -2 6 -13 5 -11 0 -14 -3 -6 -6z"/>
<path d="M1738 6383 c7 -3 16 -2 19 1 4 3 -2 6 -13 5 -11 0 -14 -3 -6 -6z"/>
<path d="M1095 6370 c-3 -5 -1 -10 4 -10 6 0 11 5 11 10 0 6 -2 10 -4 10 -3 0
-8 -4 -11 -10z"/>
<path d="M1388 6373 c7 -3 16 -2 19 1 4 3 -2 6 -13 5 -11 0 -14 -3 -6 -6z"/>
<path d="M948 6363 c6 -2 18 -2 25 0 6 3 1 5 -13 5 -14 0 -19 -2 -12 -5z"/>
<path d="M2250 6366 c0 -2 7 -6 15 -10 8 -3 15 -1 15 4 0 6 -7 10 -15 10 -8 0
-15 -2 -15 -4z"/>
<path d="M1105 6347 c-19 -15 -13 -39 8 -31 9 3 20 44 12 44 -1 0 -9 -6 -20
-13z"/>
<path d="M1965 6340 c27 -12 43 -12 25 0 -8 5 -22 9 -30 9 -10 0 -8 -3 5 -9z"/>
<path d="M2251 6324 c0 -11 3 -14 6 -6 3 7 2 16 -1 19 -3 4 -6 -2 -5 -13z"/>
<path d="M4486 6327 c-26 -19 -17 -51 17 -55 31 -4 47 20 30 46 -13 22 -26 24
-47 9z"/>
<path d="M2290 6306 c0 -8 4 -17 9 -20 5 -4 7 3 4 14 -6 23 -13 26 -13 6z"/>
<path d="M1460 6303 c-153 -24 -307 -77 -415 -142 -37 -23 -71 -41 -75 -41 -5
0 -10 -3 -12 -8 -1 -4 -23 -22 -48 -41 -62 -47 -172 -161 -211 -219 -18 -26
-36 -49 -40 -52 -17 -12 -109 -212 -132 -285 -40 -127 -50 -200 -50 -340 1
-296 104 -555 307 -772 275 -296 701 -424 1091 -328 435 107 774 467 850 904
57 325 -34 668 -244 921 -174 210 -412 349 -675 395 -80 14 -281 19 -346 8z
m401 -92 c197 -50 340 -128 481 -263 170 -162 279 -368 319 -602 19 -114 7
-342 -25 -451 -53 -183 -158 -358 -288 -480 -141 -133 -240 -193 -411 -250
-451 -149 -962 32 -1222 435 -305 471 -192 1096 260 1433 192 143 383 205 636
206 119 1 151 -3 250 -28z"/>
<path d="M1277 6128 c-9 -26 -1 -32 39 -29 34 2 48 -3 76 -28 39 -34 100 -151
102 -195 1 -26 -3 -31 -30 -36 -39 -8 -77 -37 -98 -72 -21 -34 -21 -133 -1
-172 9 -16 12 -32 8 -36 -4 -4 -36 -17 -71 -30 -144 -52 -282 -175 -282 -251
0 -23 -6 -38 -20 -47 -11 -7 -20 -19 -20 -27 0 -8 -9 -19 -20 -25 -13 -7 -20
-21 -20 -40 0 -17 -4 -30 -10 -30 -22 0 -32 -41 -21 -86 8 -31 8 -50 0 -68
-13 -27 -5 -50 71 -226 21 -47 66 -152 100 -233 57 -133 68 -151 104 -177 101
-69 236 -103 416 -103 210 -1 338 37 436 127 35 32 50 57 70 116 14 41 62 179
106 305 44 127 85 250 91 274 10 41 10 45 -15 65 -15 12 -28 34 -30 51 -2 19
-11 34 -27 41 -13 7 -31 30 -41 51 -18 40 -56 77 -91 88 -10 4 -19 15 -19 26
0 51 -71 129 -116 129 -17 0 -27 8 -34 24 -9 25 -55 66 -74 66 -19 0 -49 65
-41 90 10 31 -14 120 -42 158 -51 68 -121 89 -196 57 -20 -8 -40 -15 -44 -15
-5 0 -19 29 -32 65 -26 73 -86 156 -134 186 -36 22 -83 25 -90 7z m431 -292
c12 -58 -48 -108 -128 -109 -63 -1 -87 18 -36 27 42 8 72 36 79 76 4 16 14 30
24 32 27 6 58 -7 61 -26z m116 -304 c-1 -34 -7 -50 -34 -77 -38 -39 -86 -57
-211 -80 -122 -22 -262 -61 -312 -86 -97 -50 -217 -176 -217 -230 0 -10 -5
-19 -10 -19 -35 0 -12 85 46 172 50 74 51 77 11 39 l-36 -34 -9 34 c-13 50 3
82 69 142 61 56 156 108 234 129 42 11 46 11 72 -14 34 -32 65 -48 92 -48 10
0 21 -5 23 -11 5 -16 124 16 169 46 20 13 47 37 60 54 34 43 54 36 53 -17z
m56 8 c34 -18 45 -79 26 -143 -14 -50 -85 -156 -104 -157 -4 -1 -23 -15 -42
-32 -40 -35 -25 -29 38 16 53 37 120 135 128 187 9 51 21 61 62 43 44 -18 77
-89 68 -146 -9 -57 -58 -147 -103 -189 -41 -39 -66 -55 -152 -101 -101 -56
-158 -98 -187 -139 -58 -85 -110 -107 -174 -74 -23 12 -34 13 -55 3 -21 -9
-38 -8 -95 11 -39 13 -70 27 -70 31 0 4 15 17 33 29 36 23 26 28 -13 6 -32
-19 -79 -19 -86 -1 -3 8 -12 12 -20 9 -21 -8 -18 53 6 107 l20 45 -21 -24
c-11 -14 -25 -44 -32 -68 -6 -24 -14 -43 -18 -43 -16 0 -31 64 -26 110 7 62
24 93 82 158 74 82 177 127 384 168 236 47 287 73 311 159 14 50 13 49 40 35z
m261 -267 c66 -70 53 -157 -37 -262 -54 -63 -181 -161 -208 -161 -13 0 -36 -7
-52 -15 -17 -8 -50 -17 -74 -20 -25 -3 -67 -9 -95 -13 -95 -14 -100 -5 -43 72
32 43 58 61 208 145 122 68 191 144 226 250 18 56 27 57 75 4z m59 -217 c0
-44 -37 -89 -91 -110 -23 -9 -43 -16 -44 -14 -2 2 17 26 42 53 24 28 51 62 59
78 20 37 34 34 34 -7z m26 -126 c9 0 12 -4 9 -10 -3 -5 -33 -87 -65 -181 -50
-148 -74 -198 -87 -185 -2 2 3 23 12 47 18 56 51 199 60 264 8 56 22 78 42 70
8 -3 21 -5 29 -5z m-1206 -61 c0 -31 6 -53 69 -250 21 -65 33 -115 27 -113 -6
3 -28 46 -49 97 -69 163 -89 211 -109 249 -20 40 -16 46 35 47 24 1 27 -3 27
-30z m1103 -19 c-5 -37 -44 -216 -50 -230 -7 -18 -9 -28 -11 -57 -1 -15 -8
-23 -21 -23 -11 0 -28 -15 -40 -32 -11 -18 -21 -26 -21 -18 -1 46 44 357 53
368 15 19 93 12 90 -8z m-982 -47 c6 -15 17 -64 25 -108 9 -44 22 -105 30
-135 16 -63 17 -82 3 -57 -15 26 -27 20 -31 -15 -3 -30 -5 -27 -20 27 -23 83
-74 246 -83 268 -5 13 0 20 26 32 19 8 35 14 37 15 1 0 7 -12 13 -27z m784 7
c17 -11 38 -20 48 -20 13 0 17 -5 13 -17 -2 -10 -10 -76 -17 -148 -13 -142
-32 -217 -25 -100 3 39 3 59 0 45 -3 -14 -7 -34 -9 -45 -3 -12 -18 -26 -38
-33 -25 -9 -37 -22 -50 -54 l-16 -43 6 90 c3 50 9 95 14 101 5 6 6 13 4 16 -7
7 11 204 20 218 9 14 16 13 50 -10z m-640 -37 c4 -16 9 -44 12 -63 2 -19 11
-86 19 -149 14 -108 14 -153 0 -95 -4 14 -13 32 -20 40 -11 11 -16 7 -29 -24
-9 -20 -18 -46 -21 -57 -3 -11 -2 14 0 55 3 41 1 86 -4 100 -8 19 -9 10 -5
-35 9 -92 -4 -62 -27 65 -11 63 -22 122 -25 130 -3 10 9 23 33 36 50 29 59 29
67 -3z m150 -9 c20 -23 23 -41 29 -176 4 -82 5 -152 2 -156 -3 -3 -6 6 -6 21
0 16 -7 28 -19 32 -34 11 -50 -5 -65 -68 -8 -34 -15 -53 -15 -42 -1 11 -4 31
-7 45 -4 20 -3 22 5 10 9 -12 11 -11 11 8 0 13 -4 20 -10 17 -5 -3 -10 0 -10
7 0 31 -21 235 -26 251 -3 11 1 19 13 24 10 3 27 17 37 30 25 29 34 29 61 -3z
m342 12 c15 -8 35 -17 44 -19 13 -4 14 -15 8 -63 -4 -33 -8 -90 -9 -129 -2
-70 -17 -147 -19 -97 -1 12 -5 22 -11 22 -5 0 -10 8 -10 18 -1 15 -1 16 -10 1
-5 -9 -21 -20 -34 -23 -19 -5 -30 -21 -49 -73 -37 -101 -37 -101 -33 -63 7 51
21 331 18 356 -2 20 49 84 67 84 5 0 22 -7 38 -14z m-167 -29 l35 -32 -3 -165
c-2 -107 -6 -159 -12 -150 -5 8 -10 26 -10 40 0 20 -2 22 -10 10 -8 -12 -10
-11 -10 8 0 18 -6 22 -30 22 -20 0 -33 -7 -41 -22 -7 -13 -11 -23 -10 -23 2 0
0 -17 -4 -37 -15 -77 -22 -33 -24 137 l-2 176 33 33 c18 18 38 34 43 34 6 1
26 -13 45 -31z"/>
<path d="M1473 5433 c9 -2 25 -2 35 0 9 3 1 5 -18 5 -19 0 -27 -2 -17 -5z"/>
<path d="M1418 5423 c6 -2 18 -2 25 0 6 3 1 5 -13 5 -14 0 -19 -2 -12 -5z"/>
<path d="M1290 4920 c-9 -6 -10 -10 -3 -10 6 0 15 5 18 10 8 12 4 12 -15 0z"/>
<path d="M2126 4685 c-9 -26 -7 -32 5 -12 6 10 9 21 6 23 -2 3 -7 -2 -11 -11z"/>
<path d="M2091 4804 c0 -11 3 -14 6 -6 3 7 2 16 -1 19 -3 4 -6 -2 -5 -13z"/>
<path d="M2055 4770 c3 -5 8 -10 11 -10 2 0 4 5 4 10 0 6 -5 10 -11 10 -5 0
-7 -4 -4 -10z"/>
<path d="M2068 4697 c-3 -19 -2 -25 4 -19 6 6 8 18 6 28 -3 14 -5 12 -10 -9z"/>
<path d="M2036 4571 c-4 -7 -5 -15 -2 -18 9 -9 19 4 14 18 -4 11 -6 11 -12 0z"/>
<path d="M1131 4734 c0 -11 3 -14 6 -6 3 7 2 16 -1 19 -3 4 -6 -2 -5 -13z"/>
<path d="M1101 4724 c0 -11 3 -14 6 -6 3 7 2 16 -1 19 -3 4 -6 -2 -5 -13z"/>
<path d="M1110 4689 c0 -5 5 -7 10 -4 6 3 10 8 10 11 0 2 -4 4 -10 4 -5 0 -10
-5 -10 -11z"/>
<path d="M1161 4544 c0 -11 3 -14 6 -6 3 7 2 16 -1 19 -3 4 -6 -2 -5 -13z"/>
<path d="M1892 4770 c0 -14 2 -19 5 -12 2 6 2 18 0 25 -3 6 -5 1 -5 -13z"/>
<path d="M1961 4744 c0 -11 3 -14 6 -6 3 7 2 16 -1 19 -3 4 -6 -2 -5 -13z"/>
<path d="M1872 4675 c0 -16 2 -22 5 -12 2 9 2 23 0 30 -3 6 -5 -1 -5 -18z"/>
<path d="M1901 4664 c0 -11 3 -14 6 -6 3 7 2 16 -1 19 -3 4 -6 -2 -5 -13z"/>
<path d="M1240 4740 c0 -6 7 -10 15 -10 8 0 15 2 15 4 0 2 -7 6 -15 10 -8 3
-15 1 -15 -4z"/>
<path d="M1260 4699 c0 -5 5 -7 10 -4 6 3 10 8 10 11 0 2 -4 4 -10 4 -5 0 -10
-5 -10 -11z"/>
<path d="M1225 4639 c-4 -6 -5 -12 -2 -15 2 -3 7 2 10 11 7 17 1 20 -8 4z"/>
<path d="M1252 4620 c0 -14 2 -19 5 -12 2 6 2 18 0 25 -3 6 -5 1 -5 -13z"/>
<path d="M1301 4524 c0 -11 3 -14 6 -6 3 7 2 16 -1 19 -3 4 -6 -2 -5 -13z"/>
<path d="M1387 4703 c-4 -3 -7 -11 -7 -17 0 -6 5 -5 12 2 6 6 9 14 7 17 -3 3
-9 2 -12 -2z"/>
<path d="M1746 4724 c-22 -22 -20 -31 2 -11 10 10 22 14 25 10 4 -3 7 -1 7 5
0 17 -16 15 -34 -4z"/>
<path d="M1758 4683 c7 -3 16 -2 19 1 4 3 -2 6 -13 5 -11 0 -14 -3 -6 -6z"/>
<path d="M1802 4610 c0 -19 2 -27 5 -17 2 9 2 25 0 35 -3 9 -5 1 -5 -18z"/>
<path d="M1560 4689 c-22 -6 -20 -7 13 -8 38 -1 47 3 25 11 -7 3 -24 1 -38 -3z"/>
<path d="M1621 4584 c0 -11 3 -14 6 -6 3 7 2 16 -1 19 -3 4 -6 -2 -5 -13z"/>
<path d="M1621 4504 c0 -11 3 -14 6 -6 3 7 2 16 -1 19 -3 4 -6 -2 -5 -13z"/>
<path d="M1035 6271 c3 -5 -8 -15 -25 -23 -16 -7 -30 -16 -30 -20 0 -4 18 2
40 13 45 24 46 25 24 33 -8 3 -13 2 -9 -3z"/>
<path d="M2165 6270 c-13 -5 -14 -9 -5 -9 8 0 24 4 35 9 13 5 14 9 5 9 -8 0
-24 -4 -35 -9z"/>
<path d="M2225 6260 c3 -5 8 -10 11 -10 2 0 4 5 4 10 0 6 -5 10 -11 10 -5 0
-7 -4 -4 -10z"/>
<path d="M818 6233 c12 -2 32 -2 45 0 12 2 2 4 -23 4 -25 0 -35 -2 -22 -4z"/>
<path d="M950 6221 c0 -6 4 -13 10 -16 6 -3 7 1 4 9 -7 18 -14 21 -14 7z"/>
<path d="M813 6213 c9 -2 23 -2 30 0 6 3 -1 5 -18 5 -16 0 -22 -2 -12 -5z"/>
<path d="M4350 6209 c-36 -5 -117 -26 -180 -47 -63 -22 -132 -42 -152 -45 -37
-6 -38 -5 -38 23 0 39 -34 59 -59 36 -12 -11 -27 -14 -49 -10 -18 4 -53 -1
-85 -11 -50 -16 -57 -16 -85 -1 -101 52 -262 -39 -262 -149 0 -48 19 -70 70
-85 34 -10 83 7 93 32 11 28 6 -34 -8 -102 -19 -89 -21 -93 -46 -79 -15 7 -24
7 -35 -2 -20 -17 -17 -47 7 -60 19 -10 20 -9 15 13 -6 19 -4 18 9 -5 9 -16 13
-36 10 -45 -4 -9 -11 -39 -15 -67 -5 -27 -20 -92 -34 -144 -42 -151 -51 -356
-21 -490 4 -21 -2 -35 -34 -70 -64 -71 -87 -169 -60 -264 13 -49 71 -113 115
-129 28 -10 34 -17 34 -40 0 -36 22 -90 48 -116 45 -45 161 -54 234 -18 43 22
54 20 96 -13 60 -48 210 -117 314 -145 144 -40 252 -49 378 -35 156 18 385 98
454 158 13 11 38 16 90 16 223 2 223 1 269 44 23 22 59 72 81 111 37 69 38 74
26 114 -17 58 -27 66 -76 66 -24 0 -44 2 -44 4 0 3 9 21 21 40 19 33 44 93 74
181 59 174 56 462 -6 625 -17 46 -18 55 -5 69 27 30 86 153 86 178 0 14 -13
37 -29 54 -34 33 -83 39 -119 13 -22 -15 -22 -14 -22 25 0 79 -87 141 -172
122 -20 -5 -38 -5 -40 -1 -8 19 -204 142 -278 174 -169 74 -371 101 -570 75z
m193 -36 c-13 -2 -33 -2 -45 0 -13 2 -3 4 22 4 25 0 35 -2 23 -4z m107 -3 c18
-12 2 -12 -25 0 -13 6 -15 9 -5 9 8 0 22 -4 30 -9z m-17 -21 c114 -17 302 -75
334 -103 7 -6 51 -36 98 -66 46 -30 85 -60 85 -67 0 -6 -5 -24 -10 -38 l-10
-27 -21 26 c-62 79 -181 74 -265 -9 -39 -39 -44 -42 -44 -22 0 30 -33 82 -66
103 -41 28 -115 24 -157 -8 -19 -15 -40 -40 -47 -57 l-12 -30 -24 28 c-35 42
-95 63 -144 52 -22 -5 -52 -17 -66 -26 -14 -9 -27 -15 -28 -13 -1 2 -7 34 -13
72 -10 55 -18 75 -44 102 -23 24 -28 35 -18 38 182 53 311 66 452 45z m224
-15 c-3 -3 -12 -4 -19 -1 -8 3 -5 6 6 6 11 1 17 -2 13 -5z m-1147 -29 c21 -19
28 -19 75 5 64 33 119 25 172 -22 19 -18 26 -19 57 -8 70 23 149 -8 181 -70
21 -40 19 -140 -5 -230 -10 -41 -17 -76 -15 -78 4 -5 29 34 68 107 31 59 94
95 152 86 70 -11 108 -69 85 -130 l-11 -28 30 32 c16 17 35 31 43 31 8 0 14
14 15 37 3 50 38 84 95 90 37 4 49 1 76 -22 26 -22 32 -34 32 -65 0 -29 -5
-40 -19 -45 -19 -6 -19 -8 6 -56 29 -55 27 -56 74 34 41 80 94 117 167 117 50
0 58 -3 88 -36 19 -19 34 -44 34 -54 0 -17 4 -18 29 -9 17 6 28 16 25 22 -17
46 50 117 110 117 30 0 72 -21 88 -44 13 -19 8 -69 -8 -87 -15 -17 -15 -22 6
-64 12 -25 23 -45 25 -45 2 0 16 22 30 49 15 27 35 51 44 53 32 8 66 -8 76
-36 8 -23 4 -38 -25 -92 -18 -35 -49 -78 -67 -96 -32 -31 -39 -33 -116 -36
-137 -6 -154 -5 -186 14 -24 14 -33 15 -45 5 -8 -7 -32 -12 -53 -11 -57 1 -65
1 -107 -6 -28 -5 -49 -2 -72 11 -28 15 -34 15 -60 2 -27 -14 -78 -18 -204 -18
-29 0 -54 7 -73 22 -25 18 -32 19 -59 8 -29 -12 -29 -13 -12 -26 53 -37 64
-55 64 -101 0 -51 -38 -186 -77 -275 -46 -103 1 -78 57 30 57 111 96 143 173
143 70 0 114 -52 102 -119 l-7 -36 22 28 c26 32 62 35 90 7 30 -30 25 -52 -27
-122 -92 -120 -193 -155 -297 -101 -26 14 -32 14 -55 0 -44 -25 -86 -29 -127
-12 -34 14 -42 14 -76 0 -80 -32 -168 18 -183 103 -16 96 56 230 133 245 29 6
31 10 47 81 10 44 25 82 36 92 25 23 24 34 -4 34 -12 0 -38 8 -57 19 -34 18
-35 18 -62 -2 -57 -42 -154 -3 -173 70 -3 13 8 84 25 159 32 136 33 194 5 194
-39 0 -67 -57 -106 -216 -17 -71 -38 -139 -46 -151 -16 -26 -59 -31 -88 -9
-24 17 -22 47 10 175 31 125 43 225 26 235 -20 12 -61 -46 -80 -113 -11 -36
-31 -122 -46 -191 -33 -156 -42 -172 -97 -168 -25 2 -45 10 -51 20 -13 20 -3
94 39 290 26 126 27 139 13 153 -15 15 -19 14 -46 -9 -49 -41 -95 -39 -113 4
-10 25 -9 34 7 62 28 49 96 81 157 74 27 -3 56 -12 66 -21z m315 -323 c-37
-161 -33 -193 32 -254 37 -35 86 -43 145 -24 45 16 78 13 78 -6 0 -5 -8 -38
-17 -73 -15 -57 -20 -64 -55 -80 -74 -32 -128 -134 -128 -240 0 -127 100 -200
225 -165 60 17 78 3 43 -35 -13 -14 -35 -57 -47 -96 -19 -58 -26 -69 -39 -64
-50 21 -88 17 -116 -11 -15 -14 -18 -14 -42 5 -18 14 -41 21 -70 21 -42 0 -44
1 -54 38 -23 86 -99 154 -202 182 -41 11 -146 10 -212 -2 -16 -2 -22 5 -29 42
-10 55 -2 323 11 365 5 17 15 48 21 71 l11 41 48 -5 c41 -3 53 0 76 20 25 21
33 45 67 193 21 92 41 171 44 173 11 11 4 -29 -20 -124 -14 -54 -25 -107 -25
-117 0 -29 30 -74 58 -86 31 -15 86 -4 108 20 9 10 34 86 55 169 21 83 42 156
46 163 16 27 12 -17 -12 -121z m909 -287 c23 4 64 6 93 5 29 0 61 4 72 9 14 8
29 7 55 -4 25 -11 64 -14 139 -12 57 2 108 6 113 10 18 11 30 -8 47 -73 30
-118 40 -212 33 -305 -8 -108 -45 -261 -86 -352 l-30 -66 -35 36 c-41 42 -70
52 -123 43 -46 -7 -82 -33 -106 -78 l-20 -35 -35 38 c-59 61 -149 63 -219 4
l-29 -25 -27 25 c-37 34 -93 49 -138 37 l-35 -10 1 67 c1 55 -3 72 -23 100
l-24 33 34 -8 c87 -20 165 4 242 74 51 47 97 128 97 170 0 36 -36 81 -67 84
-10 0 -22 2 -28 3 -5 2 -15 3 -21 4 -7 0 -15 12 -18 25 -8 31 -55 66 -99 73
-40 6 -110 -12 -132 -33 -23 -23 -28 -12 -15 36 6 22 8 60 5 83 l-6 42 103 -1
c57 0 121 5 143 11 32 10 45 9 69 -3 20 -10 42 -12 70 -7z m576 -199 c0 -26
-6 -18 -14 19 -5 22 -4 26 4 15 5 -8 10 -24 10 -34z m-2003 -318 c-3 -8 -6 -5
-6 6 -1 11 2 17 5 13 3 -3 4 -12 1 -19z m289 -43 c71 -21 119 -65 143 -131 12
-30 21 -67 21 -83 0 -39 8 -42 35 -15 28 28 52 30 83 8 27 -19 30 -85 7 -160
-8 -27 -15 -53 -15 -59 0 -25 41 58 65 132 28 89 44 103 100 89 39 -10 46 -34
30 -107 -7 -35 -11 -66 -10 -67 8 -9 26 45 56 164 44 176 79 224 164 224 57 0
95 -44 95 -108 0 -62 -27 -113 -102 -191 -52 -53 -58 -64 -60 -106 -2 -31 1
-49 9 -52 18 -6 54 37 88 103 38 74 71 113 112 130 81 34 150 3 160 -73 5 -35
2 -45 -20 -67 -32 -31 -50 -33 -78 -5 -11 11 -22 19 -23 17 -13 -15 -26 -51
-26 -73 0 -32 21 -41 59 -25 39 16 63 43 101 115 18 33 39 68 48 79 44 48 130
61 175 26 33 -26 52 -82 38 -109 -18 -32 -12 -36 10 -7 12 15 33 32 46 37 13
5 22 13 18 19 -9 15 21 76 46 94 13 9 43 16 67 16 34 0 48 -6 67 -26 29 -31
33 -79 9 -105 -15 -16 -15 -20 0 -41 9 -12 16 -30 16 -40 0 -34 19 -27 39 16
25 51 66 75 100 57 35 -19 37 -56 6 -114 -70 -131 -94 -145 -245 -143 -92 1
-109 4 -137 24 l-31 22 -39 -22 c-56 -34 -148 -32 -193 3 l-34 26 -45 -26
c-62 -34 -146 -36 -190 -3 -29 21 -33 21 -55 7 -57 -38 -137 -39 -175 -4 -19
18 -20 18 -44 -1 -38 -30 -79 -35 -121 -15 -28 13 -40 15 -49 6 -16 -16 -94
-14 -121 4 -35 23 -50 67 -43 128 l7 52 -24 -52 c-31 -66 -69 -108 -121 -133
-45 -22 -126 -27 -169 -10 -38 14 -66 66 -66 121 0 45 -1 47 -34 53 -76 14
-125 89 -126 187 0 111 56 188 160 220 43 13 164 10 216 -6z m1634 -169 c0 -2
-8 -10 -17 -17 -16 -13 -17 -12 -4 4 13 16 21 21 21 13z m-606 -426 c22 -10
66 -22 100 -26 l60 -7 -44 -13 c-25 -7 -54 -18 -65 -23 -42 -20 -153 -50 -222
-60 -159 -24 -330 -7 -472 46 -143 53 -145 54 -92 70 29 8 49 9 62 3 26 -14
94 -12 133 4 22 9 37 11 44 4 18 -18 115 -21 156 -4 35 14 43 14 83 1 59 -20
130 -18 178 4 22 11 40 20 40 20 1 1 18 -8 39 -19z m-667 -116 c-3 -3 -12 -4
-19 -1 -8 3 -5 6 6 6 11 1 17 -2 13 -5z m316 -41 c-7 -2 -19 -2 -25 0 -7 3 -2
5 12 5 14 0 19 -2 13 -5z m-76 -19 c-3 -3 -12 -4 -19 -1 -8 3 -5 6 6 6 11 1
17 -2 13 -5z"/>
<path d="M3563 6070 c-37 -22 -59 -58 -46 -71 6 -6 24 2 48 21 21 16 46 30 57
30 28 0 68 -45 68 -77 0 -28 -36 -212 -64 -328 -13 -52 -13 -62 0 -75 25 -25
40 6 68 135 44 200 54 235 81 281 15 25 38 49 51 55 37 14 73 1 80 -28 10 -39
-2 -140 -31 -251 -29 -117 -31 -142 -10 -142 20 0 29 24 55 151 34 159 84 239
149 239 25 0 51 -32 57 -71 4 -21 -6 -85 -25 -166 -33 -140 -32 -171 8 -192
37 -20 68 -13 99 24 l31 34 34 -34 c29 -29 42 -35 79 -35 45 0 113 30 134 58
10 14 16 11 43 -21 38 -43 86 -56 129 -35 20 10 34 12 49 5 36 -16 86 0 108
33 21 32 35 38 35 17 0 -8 8 -24 19 -35 24 -28 72 -29 96 -2 16 17 20 18 34 6
34 -29 60 -29 90 2 l29 29 31 -31 c25 -25 38 -30 73 -28 24 1 71 2 104 2 53 0
65 4 88 27 29 29 86 123 86 142 0 28 -33 2 -72 -59 -34 -51 -49 -66 -72 -68
-28 -3 -28 -3 -21 36 8 47 -7 82 -54 126 -17 17 -31 37 -31 47 0 24 32 34 46
15 16 -22 34 -20 34 3 0 50 -65 67 -104 28 -32 -32 -24 -70 25 -124 41 -45 49
-77 23 -87 -9 -4 -14 -9 -11 -13 11 -11 -14 -33 -37 -33 -12 0 -32 7 -45 16
-21 15 -23 22 -18 70 8 74 -9 70 -61 -12 -24 -37 -48 -64 -55 -61 -14 5 -14 7
4 111 13 78 13 79 -10 97 -31 25 -91 25 -124 -1 -14 -11 -42 -51 -63 -88 -55
-101 -81 -132 -110 -132 -23 0 -24 3 -18 38 7 46 -9 83 -55 126 -17 17 -31 37
-31 47 0 23 26 31 40 13 18 -20 40 -17 40 5 0 45 -55 65 -98 35 -38 -26 -30
-81 18 -133 38 -40 53 -81 30 -81 -6 0 -15 -11 -20 -25 -12 -31 -59 -34 -85
-5 -14 16 -16 29 -11 70 8 64 -10 67 -48 10 -38 -57 -100 -100 -146 -100 -46
0 -73 27 -68 67 3 25 8 28 53 35 38 5 57 14 78 38 34 38 34 63 0 90 -22 17
-35 20 -63 15 -36 -7 -84 -51 -96 -89 -4 -12 -26 -51 -50 -88 -31 -48 -50 -68
-64 -68 -33 0 -34 23 -6 145 34 150 34 214 1 253 -31 37 -81 48 -128 28 -19
-8 -40 -22 -45 -32 -12 -22 -12 -22 -35 29 -9 20 -28 42 -41 48 -36 17 -90 3
-127 -32 l-32 -30 -15 22 c-17 24 -70 49 -104 49 -13 0 -37 -9 -55 -20z m842
-260 c13 -22 -7 -50 -43 -60 -20 -5 -40 -10 -44 -10 -17 0 -7 29 18 54 27 27
58 34 69 16z m610 -32 c-10 -46 -51 -132 -74 -152 -53 -48 -78 49 -35 136 18
34 40 47 82 48 33 0 33 -1 27 -32z"/>
<path d="M4946 5741 c-9 -16 -16 -38 -16 -48 1 -10 10 2 21 25 23 50 19 70 -5
23z"/>
<path d="M5204 5696 c-9 -37 10 -56 26 -26 10 18 9 25 -3 38 -14 14 -17 12
-23 -12z"/>
<path d="M4410 5690 c-19 -11 -43 -19 -52 -20 -10 0 -18 -5 -18 -11 0 -19 63
-1 90 26 29 30 26 30 -20 5z"/>
<path d="M4594 5696 c-3 -9 -3 -24 1 -33 6 -17 7 -17 21 2 8 10 13 24 11 29
-6 17 -27 18 -33 2z"/>
<path d="M4383 5488 c-29 -14 -63 -106 -63 -170 0 -24 -4 -28 -27 -28 -72 0
-135 -82 -137 -176 -1 -42 4 -57 23 -78 13 -14 36 -28 52 -31 31 -7 82 15 97
42 9 15 13 13 35 -13 21 -24 32 -29 68 -28 35 1 47 7 70 35 l27 33 29 -30 c57
-62 134 -58 210 10 57 51 100 121 82 132 -7 4 -22 -5 -36 -22 -56 -69 -98
-105 -136 -115 -35 -9 -44 -8 -66 9 -17 13 -26 29 -26 47 0 26 4 29 55 41 58
13 100 49 100 85 0 30 -36 59 -74 59 -44 0 -81 -30 -113 -93 -74 -147 -131
-188 -167 -119 -12 23 -10 32 15 87 36 75 79 219 79 263 0 36 -29 72 -57 71
-10 0 -28 -5 -40 -11z m57 -66 c0 -53 -54 -222 -71 -222 -19 0 -1 198 23 243
5 9 18 17 28 17 16 0 20 -7 20 -38z m-126 -252 l8 -74 -31 -28 c-17 -15 -38
-28 -45 -28 -48 0 -63 97 -25 160 26 42 38 51 64 48 17 -3 21 -14 29 -78z
m386 61 c0 -25 -37 -51 -72 -51 -34 0 -35 13 -3 45 30 31 75 34 75 6z"/>
<path d="M4253 5176 c-13 -27 -18 -96 -7 -96 3 0 12 7 21 15 12 12 13 25 7 62
l-9 47 -12 -28z"/>
<path d="M4722 5137 c-7 -8 -30 -19 -52 -26 -42 -13 -48 -32 -7 -24 28 6 85
48 76 57 -3 4 -11 0 -17 -7z"/>
<path d="M3570 4894 c-19 -8 -43 -23 -53 -32 -59 -53 -76 -171 -34 -233 25
-37 70 -64 93 -55 23 9 16 24 -20 41 -93 44 -83 191 16 238 39 18 124 27 121
12 -1 -5 -17 -85 -37 -177 -44 -203 -45 -240 -10 -275 23 -23 31 -25 85 -21
74 5 122 41 164 123 27 52 30 68 29 144 0 72 -5 94 -26 136 -31 60 -54 82
-105 101 -51 18 -179 17 -223 -2z m240 -53 c44 -30 64 -87 65 -176 0 -68 -4
-89 -29 -138 -40 -82 -102 -116 -157 -87 -23 13 -25 57 -4 150 7 36 24 113 36
173 20 100 23 107 43 101 12 -3 32 -13 46 -23z"/>
<path d="M3747 4688 c-36 -166 -43 -218 -28 -218 31 0 71 33 92 77 31 64 33
190 3 230 -11 15 -25 28 -30 30 -6 2 -22 -52 -37 -119z m37 -115 c-22 -51 -29
-27 -15 50 19 98 26 109 29 45 2 -36 -3 -70 -14 -95z"/>
<path d="M4417 4866 c-27 -25 -57 -108 -78 -217 -14 -76 -46 -143 -89 -189
-27 -29 -33 -31 -45 -19 -13 12 -12 25 5 97 26 107 26 142 2 142 -15 0 -24
-16 -40 -72 -12 -40 -35 -94 -51 -120 -25 -40 -36 -48 -61 -48 -27 0 -30 3
-30 31 0 17 7 58 16 91 18 70 16 123 -6 123 -15 0 -48 -137 -49 -207 -2 -71
66 -102 123 -57 l27 21 19 -20 c43 -46 88 -38 129 25 l23 36 16 -33 c33 -69
112 -73 179 -8 l32 31 12 -26 c33 -73 165 -64 240 16 18 20 18 20 28 -5 5 -14
22 -35 38 -48 40 -31 109 -24 170 19 l45 32 28 -33 c31 -35 26 -34 158 -29 12
1 38 0 57 -1 21 -1 41 5 54 16 30 27 93 137 87 152 -9 23 -30 6 -60 -47 -36
-64 -60 -89 -87 -89 -19 0 -20 4 -14 39 8 46 -8 81 -54 125 -34 32 -40 63 -16
73 9 3 24 -2 35 -12 17 -16 20 -16 26 -2 11 29 -14 57 -50 57 -41 0 -66 -26
-66 -70 0 -24 10 -44 40 -76 42 -45 51 -78 25 -88 -8 -3 -15 -12 -15 -21 0
-16 -9 -19 -50 -15 -44 4 -53 19 -46 82 8 78 -5 76 -64 -5 -36 -50 -83 -79
-129 -81 -49 -1 -71 18 -71 59 0 31 2 33 49 39 65 9 101 37 101 80 0 42 -26
66 -73 66 -43 0 -72 -27 -112 -106 -54 -107 -145 -166 -204 -133 -62 35 -17
199 56 199 18 0 23 -5 23 -25 0 -18 5 -25 20 -25 25 0 27 35 4 68 -27 38 -99
25 -142 -28 -7 -8 -19 -31 -28 -50 -26 -61 -78 -129 -106 -141 -37 -15 -74 -4
-82 23 -18 70 4 128 80 209 69 73 84 101 84 153 0 63 -64 87 -113 42z m78 -27
c12 -18 -24 -94 -60 -129 l-35 -34 0 25 c0 36 30 133 44 141 16 11 44 10 51
-3z m482 -215 c8 -22 -17 -44 -60 -51 -44 -7 -49 8 -15 44 25 26 66 30 75 7z"/>
<path d="M3564 4794 c-36 -37 -42 -69 -23 -107 14 -26 28 -37 50 -37 11 0 20
20 32 78 9 42 17 83 17 90 0 24 -44 11 -76 -24z"/>
<path d="M3972 4645 c0 -16 2 -22 5 -12 2 9 2 23 0 30 -3 6 -5 -1 -5 -18z"/>
<path d="M5166 4525 c-10 -27 -7 -45 8 -45 20 0 29 31 13 48 -12 12 -15 11
-21 -3z"/>
<path d="M4996 4521 c-3 -5 -27 -14 -52 -20 -48 -12 -51 -34 -3 -24 28 5 92
52 72 53 -6 0 -14 -4 -17 -9z"/>
<path d="M762 6175 c-2 -28 9 -65 19 -65 5 0 9 7 9 15 0 8 -4 15 -9 15 -5 0
-12 12 -14 28 -2 16 -5 19 -5 7z"/>
<path d="M2340 6175 c0 -16 16 -20 24 -6 3 5 -1 11 -9 15 -9 3 -15 0 -15 -9z"/>
<path d="M5048 6179 c-38 -22 -5 -79 36 -63 21 8 21 60 0 68 -19 7 -15 8 -36
-5z"/>
<path d="M850 6170 c-8 -5 -10 -10 -5 -10 6 0 17 5 25 10 8 5 11 10 5 10 -5 0
-17 -5 -25 -10z"/>
<path d="M807 6131 c-3 -14 -1 -18 9 -14 16 6 18 19 5 27 -5 3 -11 -3 -14 -13z"/>
<path d="M845 6140 c-3 -5 1 -10 9 -10 9 0 16 5 16 10 0 6 -4 10 -9 10 -6 0
-13 -4 -16 -10z"/>
<path d="M2434 6127 c-8 -9 -7 -16 2 -25 17 -15 32 -16 17 -1 -6 6 -9 18 -6
25 6 17 2 17 -13 1z"/>
<path d="M705 6100 c-3 -5 -1 -10 4 -10 6 0 11 5 11 10 0 6 -2 10 -4 10 -3 0
-8 -4 -11 -10z"/>
<path d="M736 6095 c4 -8 10 -15 15 -15 5 0 9 7 9 15 0 8 -7 15 -15 15 -9 0
-12 -6 -9 -15z"/>
<path d="M610 6080 c0 -5 6 -9 13 -7 6 1 11 -5 10 -13 -2 -10 6 -16 23 -17
l27 -1 -26 24 c-27 25 -47 31 -47 14z"/>
<path d="M2473 6077 c5 -15 37 -22 37 -9 0 5 -9 12 -21 15 -13 3 -19 1 -16 -6z"/>
<path d="M2568 6083 c7 -3 16 -2 19 1 4 3 -2 6 -13 5 -11 0 -14 -3 -6 -6z"/>
<path d="M7317 6053 c-8 -16 -21 -41 -30 -56 -16 -31 -12 -66 9 -74 15 -6 19
-43 5 -43 -15 0 -31 -94 -31 -180 0 -64 -3 -80 -15 -80 -12 0 -15 14 -15 69 0
55 -4 75 -24 103 -20 30 -21 37 -10 53 23 32 17 78 -14 108 -35 34 -48 34 -60
0 -9 -26 -10 -26 -17 -8 -11 27 -54 85 -64 85 -8 0 -51 -102 -51 -121 0 -4 9
-17 21 -28 l21 -19 -22 -30 c-18 -25 -23 -47 -27 -134 l-6 -105 -45 -12 c-140
-37 -175 -73 -172 -174 1 -34 2 -103 1 -154 l-1 -91 -37 -13 c-54 -17 -106
-52 -128 -85 -16 -23 -19 -45 -17 -109 1 -44 2 -129 2 -190 0 -175 21 -250 83
-293 42 -28 190 -66 362 -93 193 -29 628 -38 796 -16 174 23 365 106 399 173
11 22 16 72 17 209 1 99 3 200 4 225 1 25 -3 57 -9 72 -14 35 -85 86 -139 101
l-43 11 0 97 c0 53 5 110 11 127 22 64 -26 134 -112 164 -19 6 -44 22 -56 35
-12 12 -31 23 -43 23 -19 0 -20 6 -20 99 0 56 -4 103 -10 106 -16 10 -12 34
11 58 23 24 20 63 -6 104 -23 34 -39 28 -75 -26 -25 -40 -29 -54 -21 -70 6
-10 16 -21 23 -24 9 -3 6 -12 -10 -30 -20 -21 -25 -40 -30 -118 -5 -60 -11
-94 -19 -97 -10 -3 -13 26 -13 120 0 89 -4 130 -15 148 -27 47 -27 51 -10 71
27 29 23 74 -10 109 -16 17 -32 30 -37 30 -12 0 -48 -76 -48 -101 0 -12 7 -31
17 -41 15 -17 15 -20 -2 -51 -15 -28 -17 -51 -13 -150 l4 -117 -33 0 -33 0 0
73 c0 54 -5 79 -19 101 -19 28 -19 29 0 60 10 17 19 41 19 52 0 22 -50 84 -67
84 -13 0 -53 -86 -53 -112 l0 -22 -16 22 c-14 20 -14 25 -2 40 28 33 29 53 3
108 -14 30 -30 54 -35 54 -4 0 -15 -12 -23 -27z m333 -42 c8 -21 9 -35 1 -48
-9 -15 -10 -13 -11 15 0 41 -29 46 -31 5 -1 -21 -3 -23 -6 -7 -5 25 14 77 26
70 4 -3 14 -19 21 -35z m-290 -21 c6 -22 8 -44 5 -49 -8 -14 -43 -1 -48 18 -3
15 18 71 28 71 2 0 9 -18 15 -40z m-270 -72 c0 -21 -17 -32 -23 -16 -4 10 -7
10 -15 0 -17 -25 -23 17 -6 44 16 23 17 23 30 7 7 -10 14 -26 14 -35z m390
-15 c0 -21 -12 -43 -21 -37 -5 3 -9 17 -10 32 0 26 -1 26 -9 5 -10 -24 -22
-32 -16 -10 3 6 7 25 11 42 l7 30 19 -25 c10 -14 19 -30 19 -37z m322 28 c-6
-4 -15 -18 -21 -31 -7 -18 -10 -20 -10 -7 -1 24 32 74 37 57 3 -7 0 -15 -6
-19z m-613 -25 c10 -21 10 -31 1 -39 -8 -9 -9 -7 -4 8 7 20 7 20 -14 1 -22
-19 -22 -19 -22 3 0 12 4 19 10 16 6 -3 10 1 10 10 0 9 -4 13 -10 10 -5 -3
-10 1 -10 10 0 24 23 13 39 -19z m618 -18 c-3 -8 -6 -5 -6 6 -1 11 2 17 5 13
3 -3 4 -12 1 -19z m-146 -94 c0 -38 -1 -122 -2 -186 0 -85 -4 -118 -13 -121
-26 -10 -34 11 -42 118 -19 239 -7 323 39 277 15 -16 19 -33 18 -88z m-536 59
c19 -23 21 -31 11 -43 -8 -8 -16 -22 -18 -30 -3 -8 -9 2 -13 23 -4 20 -11 40
-16 42 -8 5 -2 35 8 35 2 0 15 -12 28 -27z m230 7 c3 -5 -1 -10 -9 -10 -8 0
-18 5 -21 10 -3 6 1 10 9 10 8 0 18 -4 21 -10z m65 -26 c11 -12 11 -18 -2 -30
-14 -14 -16 -13 -20 15 -5 34 3 39 22 15z m-346 -11 c4 -9 1 -20 -6 -25 -10
-6 -10 -8 0 -8 11 0 13 -23 11 -102 -1 -66 2 -102 8 -101 6 1 16 -9 23 -22 7
-14 19 -25 27 -25 9 0 13 -14 13 -44 0 -65 7 -76 46 -76 l34 0 0 90 c0 88 0
90 24 90 22 0 25 -5 33 -61 5 -39 14 -66 24 -72 17 -10 70 -2 68 11 -6 37 3
82 16 82 11 0 15 -12 16 -42 3 -119 9 -132 55 -126 l29 3 3 103 3 103 37 -7
c45 -8 62 -27 62 -70 0 -39 21 -58 55 -50 23 6 25 11 25 56 0 43 3 50 20 50
18 0 20 -7 20 -71 l0 -70 43 3 c41 3 42 4 45 40 3 36 5 37 33 31 20 -4 35 0
48 11 18 16 21 16 51 1 29 -15 30 -18 15 -29 -10 -7 -16 -22 -13 -37 4 -30 51
-39 78 -14 16 15 18 14 22 -15 4 -26 -2 -38 -32 -68 -69 -68 -97 -84 -143 -82
-65 4 -74 2 -103 -25 -31 -29 -94 -36 -94 -10 0 8 -5 15 -11 15 -7 0 -17 7
-23 15 -13 16 -69 22 -106 11 -14 -5 -39 -19 -57 -32 -39 -29 -68 -30 -90 -4
-29 34 -72 42 -129 25 -67 -20 -79 -19 -111 11 -24 22 -33 24 -73 19 -37 -5
-51 -2 -72 14 -18 14 -41 21 -72 21 -40 0 -48 4 -58 25 -12 26 -34 33 -40 13
-8 -22 -28 3 -28 34 0 29 1 30 18 15 17 -16 142 -67 162 -67 6 0 10 4 10 9 0
5 -21 14 -47 20 -117 30 -167 86 -111 125 31 22 41 20 26 -5 -11 -17 -10 -22
6 -35 24 -17 37 -18 60 -1 24 17 13 57 -15 57 -38 0 -18 17 37 30 46 11 57 11
64 0 4 -7 9 36 9 99 1 81 6 121 18 146 19 39 28 43 37 18z m296 -34 c0 -22 -4
-23 -32 -8 -17 9 -19 8 -16 -8 2 -10 13 -19 26 -21 16 -3 22 -10 22 -28 0 -28
-16 -30 -48 -6 -20 15 -22 24 -16 58 6 38 8 40 35 36 20 -3 29 -10 29 -23z
m420 11 c0 -5 -2 -10 -4 -10 -3 0 -8 5 -11 10 -3 6 -1 10 4 10 6 0 11 -4 11
-10z m-584 -45 c7 -22 13 -103 13 -182 1 -135 0 -143 -18 -143 -28 0 -31 9
-43 123 -13 125 -15 206 -5 230 12 30 40 15 53 -28z m262 15 c3 -17 0 -21 -12
-17 -9 4 -16 2 -16 -3 0 -5 10 -10 23 -12 20 -3 22 -10 25 -62 2 -41 -1 -62
-10 -67 -10 -7 -10 -9 0 -9 19 0 14 -30 -5 -30 -15 0 -16 -2 -3 -10 13 -8 13
-10 1 -10 -11 0 -9 -4 5 -14 15 -12 16 -17 7 -27 -9 -8 -9 -18 -2 -31 6 -10 7
-28 4 -38 -6 -19 -7 -19 -30 3 -21 19 -25 32 -27 96 -2 66 0 75 17 82 16 6 16
8 4 8 -20 1 -31 35 -16 50 7 7 6 15 -2 25 -10 11 -10 23 0 56 13 43 32 49 37
10z m326 -15 c11 -8 17 -17 14 -21 -8 -8 -48 14 -48 26 0 14 12 12 34 -5z m-9
-43 c-3 -3 -11 0 -18 7 -9 10 -8 11 6 5 10 -3 15 -9 12 -12z m18 -39 c-15 -5
-53 15 -53 28 0 5 15 2 33 -7 17 -10 27 -19 20 -21z m-445 7 c6 0 12 -9 12
-20 0 -18 -2 -18 -32 -6 -39 17 -52 42 -17 33 13 -4 30 -7 37 -7z m-238 -37
c0 -20 -3 -24 -11 -16 -7 7 -9 19 -6 27 10 24 17 19 17 -11z m670 6 c12 -8 9
-9 -10 -4 l-25 7 23 -17 c33 -24 27 -38 -9 -20 -25 13 -28 19 -18 31 14 17 19
17 39 3z m-444 -29 c15 0 19 -25 6 -34 -18 -11 -52 7 -52 26 0 14 5 18 16 14
9 -3 22 -6 30 -6z m434 -40 c14 -10 21 -22 17 -26 -10 -10 -57 17 -57 33 0 18
10 16 40 -7z m-422 -36 c1 0 0 -8 -4 -17 -5 -15 -8 -15 -30 0 -13 8 -24 21
-24 29 0 11 5 11 28 2 15 -7 28 -13 30 -14z m432 -41 c0 -16 -16 -17 -25 -3
-4 6 -11 8 -16 5 -5 -4 -9 6 -9 20 0 26 0 26 25 8 13 -10 25 -24 25 -30z
m-450 -16 c10 -4 8 -6 -7 -6 -16 -1 -23 5 -23 17 0 10 3 13 8 6 4 -6 14 -14
22 -17z m440 -29 c0 -5 -11 -8 -25 -8 -23 0 -34 18 -19 33 7 7 44 -14 44 -25z
m-315 -50 c6 -4 2 -8 -7 -8 -10 0 -18 7 -18 17 0 9 3 12 8 7 4 -5 12 -12 17
-16z m-618 -371 c23 -15 81 -34 150 -48 62 -13 113 -27 113 -31 0 -5 -4 -8 -9
-8 -11 0 -21 -38 -14 -56 7 -19 67 -18 84 2 10 13 10 19 0 36 -7 11 -11 21 -9
22 2 2 37 -1 78 -5 41 -5 106 -12 144 -15 50 -4 65 -9 57 -17 -30 -30 13 -67
56 -48 19 9 24 17 21 35 -5 23 -3 24 95 30 123 9 195 21 272 48 118 41 155 67
155 109 0 15 4 30 9 33 14 9 93 -22 126 -49 l30 -24 -31 11 c-35 13 -61 6 -70
-17 -10 -24 16 -47 48 -43 36 6 35 -4 -4 -38 -37 -30 -100 -59 -173 -79 -34
-9 -42 -14 -24 -14 74 -2 223 75 256 133 12 19 13 18 11 -16 -1 -20 -5 -35 -9
-33 -3 3 -14 -4 -24 -15 -19 -21 -7 -28 13 -8 9 9 12 9 12 0 0 -6 -19 -17 -42
-23 -47 -13 -90 -52 -82 -73 8 -21 -10 -27 -94 -32 -52 -3 -72 -1 -62 6 8 5
45 10 83 10 37 0 67 4 67 9 0 13 -144 5 -171 -10 -18 -9 -19 -13 -8 -21 11 -7
9 -8 -5 -4 -12 4 -27 -1 -40 -12 -12 -11 -38 -23 -58 -26 -33 -6 -42 -3 -77
30 -23 20 -39 40 -36 44 3 5 -77 9 -177 9 -440 2 -832 73 -870 157 -11 25 -3
74 12 74 5 0 7 -6 4 -14 -6 -16 24 -36 55 -36 46 0 44 62 -2 79 -18 7 -15 10
23 23 l45 15 17 -38 c9 -22 33 -48 55 -62z m-157 -115 c3 -2 -9 -1 -25 3 -23
5 -26 4 -15 -4 12 -9 11 -11 -7 -11 -13 0 -23 6 -23 13 0 6 -3 23 -7 36 l-6
24 39 -28 c21 -16 41 -31 44 -33z m94 -22 c7 -7 2 -10 -14 -10 -14 0 -32 -5
-40 -11 -11 -7 -1 -8 33 -3 44 6 52 4 88 -26 36 -28 46 -32 82 -27 23 3 51 9
62 12 13 4 34 -3 58 -19 42 -29 51 -18 11 13 l-27 21 59 -6 c33 -3 75 -7 94
-8 19 -2 46 -4 60 -5 19 -1 11 -7 -30 -23 -75 -28 -135 -30 -166 -5 -21 16
-34 18 -93 12 -64 -6 -72 -5 -110 20 -33 22 -48 26 -78 22 -41 -7 -65 6 -56
30 4 10 2 14 -4 10 -5 -3 -10 1 -10 9 0 13 8 15 35 10 20 -3 40 -10 46 -16z
m-139 -10 c3 -5 1 -10 -4 -10 -6 0 -11 5 -11 10 0 6 2 10 4 10 3 0 8 -4 11
-10z m60 -43 c5 -4 31 -6 57 -5 37 1 55 -4 87 -26 38 -27 44 -28 111 -21 l72
7 33 -36 c37 -41 63 -45 115 -18 81 43 133 36 164 -23 16 -30 25 -35 54 -35
22 0 46 10 71 29 58 46 137 83 161 76 11 -4 41 -24 66 -46 39 -33 52 -39 92
-39 45 0 76 13 111 48 23 23 59 32 122 32 53 0 63 4 92 30 18 17 49 42 69 55
l36 23 2 -170 c1 -166 0 -171 -24 -202 -42 -55 -150 -103 -311 -138 -118 -26
-470 -36 -652 -19 -171 16 -414 58 -479 82 -83 31 -104 52 -106 107 l-1 47 -6
-45 c-6 -43 -7 -44 -13 -15 -9 36 -11 101 -7 215 l3 85 6 -85 6 -85 2 88 c1
49 6 87 12 87 5 0 13 12 16 27 l7 27 11 -24 c6 -14 15 -28 21 -33z m1474 49
c-15 -13 -49 -25 -49 -17 0 5 8 12 18 14 24 6 36 8 31 3z m-1224 -30 c70 -12
70 -12 30 -19 -22 -4 -49 -10 -61 -13 -14 -4 -31 3 -50 20 -35 30 -28 31 81
12z m557 -63 c-24 -14 -41 -31 -38 -38 3 -8 -2 -11 -14 -8 -10 3 -21 0 -24 -6
-9 -14 -56 -14 -56 0 0 6 -7 8 -16 5 -8 -3 -12 -2 -9 4 13 22 -7 48 -43 58
-29 8 -8 10 103 11 l140 0 -43 -26z m165 1 l28 -25 -28 17 c-17 10 -48 17 -75
17 -34 -1 -41 2 -27 7 38 16 74 10 102 -16z m-352 -6 c14 -6 25 -15 25 -20 0
-5 -5 -6 -11 -2 -7 4 -30 13 -53 20 -35 11 -37 13 -14 13 15 1 39 -4 53 -11z
m210 -8 c-3 -5 -16 -15 -28 -21 -22 -12 -22 -12 -3 10 19 21 43 30 31 11z
m-415 -34 c-7 -7 -13 -7 -20 0 -6 6 -3 10 10 10 13 0 16 -4 10 -10z m715 -11
c-16 -8 -37 -14 -45 -14 -8 0 1 7 20 14 46 18 64 17 25 0z m-384 -9 c-15 -18
-49 -27 -57 -15 -3 5 6 9 20 9 14 0 28 5 31 10 3 6 9 10 12 10 3 0 0 -6 -6
-14z"/>
<path d="M7075 5560 c-3 -6 -3 -19 0 -31 7 -22 -10 -49 -31 -49 -7 0 -16 10
-20 22 -5 18 -8 19 -15 5 -13 -23 0 -46 29 -54 34 -8 52 18 52 74 0 43 -4 51
-15 33z"/>
<path d="M7073 5433 c-19 -7 -16 -50 4 -61 19 -11 59 3 67 24 11 28 -35 52
-71 37z"/>
<path d="M7598 5419 c-22 -12 -24 -57 -3 -65 48 -19 84 25 49 60 -18 19 -23
19 -46 5z"/>
<path d="M7307 5414 c-26 -26 9 -70 49 -60 20 5 25 12 22 34 -2 22 -9 28 -33
30 -17 2 -34 0 -38 -4z"/>
<path d="M7455 5680 c3 -5 11 -10 16 -10 6 0 7 5 4 10 -3 6 -11 10 -16 10 -6
0 -7 -4 -4 -10z"/>
<path d="M6806 4984 c-9 -8 -16 -22 -16 -29 0 -20 38 -38 66 -31 34 9 33 53
-2 66 -32 13 -30 13 -48 -6z"/>
<path d="M7845 4944 c-34 -34 4 -77 49 -56 31 14 34 47 7 62 -27 14 -37 13
-56 -6z"/>
<path d="M7875 4860 c-7 -12 2 -12 30 0 19 8 19 9 -2 9 -12 1 -25 -3 -28 -9z"/>
<path d="M7795 4850 c-4 -6 6 -7 27 -3 44 8 48 13 10 13 -17 0 -34 -4 -37 -10z"/>
<path d="M7728 4843 c12 -2 30 -2 40 0 9 3 -1 5 -23 4 -22 0 -30 -2 -17 -4z"/>
<path d="M581 6054 c0 -11 3 -14 6 -6 3 7 2 16 -1 19 -3 4 -6 -2 -5 -13z"/>
<path d="M605 6050 c3 -5 8 -10 11 -10 2 0 4 5 4 10 0 6 -5 10 -11 10 -5 0 -7
-4 -4 -10z"/>
<path d="M2573 6053 c9 -2 23 -2 30 0 6 3 -1 5 -18 5 -16 0 -22 -2 -12 -5z"/>
<path d="M2503 6039 c14 -8 22 -8 30 0 8 8 3 11 -18 11 -26 -1 -28 -2 -12 -11z"/>
<path d="M698 6033 c6 -2 18 -2 25 0 6 3 1 5 -13 5 -14 0 -19 -2 -12 -5z"/>
<path d="M630 5987 c0 -20 4 -37 9 -37 5 0 8 14 6 31 -6 45 -15 49 -15 6z"/>
<path d="M572 5990 c0 -14 2 -19 5 -12 2 6 2 18 0 25 -3 6 -5 1 -5 -13z"/>
<path d="M612 5980 c0 -14 2 -19 5 -12 2 6 2 18 0 25 -3 6 -5 1 -5 -13z"/>
<path d="M681 5984 c0 -11 3 -14 6 -6 3 7 2 16 -1 19 -3 4 -6 -2 -5 -13z"/>
<path d="M2530 5966 c0 -2 8 -10 18 -17 15 -13 16 -12 3 4 -13 16 -21 21 -21
13z"/>
<path d="M577 5953 c-4 -3 -7 -11 -7 -17 0 -6 5 -5 12 2 6 6 9 14 7 17 -3 3
-9 2 -12 -2z"/>
<path d="M595 5920 c-10 -11 -15 -20 -11 -20 11 0 39 30 34 36 -3 2 -13 -5
-23 -16z"/>
<path d="M525 5920 c-13 -6 -15 -9 -5 -9 8 0 22 4 30 9 18 12 2 12 -25 0z"/>
<path d="M633 5913 c-15 -5 -17 -23 -4 -23 5 0 11 7 15 15 3 8 4 15 3 14 -1 0
-8 -3 -14 -6z"/>
<path d="M2678 5913 c6 -2 18 -2 25 0 6 3 1 5 -13 5 -14 0 -19 -2 -12 -5z"/>
<path d="M2640 5899 c0 -11 25 -22 39 -17 6 1 -1 8 -14 15 -14 6 -25 7 -25 2z"/>
<path d="M2724 5902 c4 -7 13 -12 21 -12 7 0 16 -10 18 -22 4 -20 4 -19 6 5 0
15 -3 27 -8 27 -5 0 -17 3 -27 7 -12 4 -15 3 -10 -5z"/>
<path d="M454 5886 c-3 -8 -4 -23 -1 -33 3 -12 5 -9 6 9 0 14 7 29 14 31 9 4
9 6 -1 6 -7 1 -15 -5 -18 -13z"/>
<path d="M471 5864 c0 -11 3 -14 6 -6 3 7 2 16 -1 19 -3 4 -6 -2 -5 -13z"/>
<path d="M2731 5844 c0 -11 3 -14 6 -6 3 7 2 16 -1 19 -3 4 -6 -2 -5 -13z"/>
<path d="M460 5784 c0 -8 5 -12 10 -9 6 4 8 11 5 16 -9 14 -15 11 -15 -7z"/>
<path d="M531 5782 c-7 -13 -11 -26 -8 -28 8 -8 29 25 25 38 -3 8 -9 4 -17
-10z"/>
<path d="M2655 5790 c3 -5 8 -10 11 -10 2 0 4 5 4 10 0 6 -5 10 -11 10 -5 0
-7 -4 -4 -10z"/>
<path d="M2717 5778 c4 -19 3 -20 -7 -8 -9 12 -10 10 -5 -10 12 -41 20 -41 23
1 1 21 -2 39 -7 39 -5 0 -7 -10 -4 -22z"/>
<path d="M2751 5784 c0 -11 3 -14 6 -6 3 7 2 16 -1 19 -3 4 -6 -2 -5 -13z"/>
<path d="M511 5724 c0 -11 3 -14 6 -6 3 7 2 16 -1 19 -3 4 -6 -2 -5 -13z"/>
<path d="M2765 5730 c3 -5 11 -10 16 -10 6 0 7 5 4 10 -3 6 -11 10 -16 10 -6
0 -7 -4 -4 -10z"/>
<path d="M2690 5720 c0 -5 5 -10 11 -10 5 0 7 5 4 10 -3 6 -8 10 -11 10 -2 0
-4 -4 -4 -10z"/>
<path d="M425 5700 c-3 -5 -1 -10 4 -10 6 0 11 5 11 10 0 6 -2 10 -4 10 -3 0
-8 -4 -11 -10z"/>
<path d="M2856 5681 c22 -21 27 -21 18 3 -3 9 -13 16 -22 16 -13 0 -12 -3 4
-19z"/>
<path d="M380 5670 c0 -5 5 -10 10 -10 6 0 10 5 10 10 0 6 -4 10 -10 10 -5 0
-10 -4 -10 -10z"/>
<path d="M485 5669 c-4 -6 -5 -12 -2 -15 2 -3 7 2 10 11 7 17 1 20 -8 4z"/>
<path d="M350 5660 c0 -5 5 -10 11 -10 5 0 7 5 4 10 -3 6 -8 10 -11 10 -2 0
-4 -4 -4 -10z"/>
<path d="M2840 5660 c0 -5 5 -10 11 -10 5 0 7 5 4 10 -3 6 -8 10 -11 10 -2 0
-4 -4 -4 -10z"/>
<path d="M380 5639 c0 -5 5 -7 10 -4 6 3 10 8 10 11 0 2 -4 4 -10 4 -5 0 -10
-5 -10 -11z"/>
<path d="M2760 5624 c0 -8 5 -12 10 -9 6 3 10 10 10 16 0 5 -4 9 -10 9 -5 0
-10 -7 -10 -16z"/>
<path d="M2827 5634 c-4 -4 -7 -14 -7 -23 0 -11 3 -12 11 -4 6 6 10 16 7 23
-2 6 -7 8 -11 4z"/>
<path d="M457 5603 c-4 -3 -7 -13 -7 -22 1 -13 3 -13 11 2 11 19 8 33 -4 20z"/>
<path d="M2781 5574 c0 -11 3 -14 6 -6 3 7 2 16 -1 19 -3 4 -6 -2 -5 -13z"/>
<path d="M411 5544 c0 -11 3 -14 6 -6 3 7 2 16 -1 19 -3 4 -6 -2 -5 -13z"/>
<path d="M355 5530 c-3 -5 -1 -10 4 -10 6 0 11 5 11 10 0 6 -2 10 -4 10 -3 0
-8 -4 -11 -10z"/>
<path d="M2781 5494 c0 -11 3 -14 6 -6 3 7 2 16 -1 19 -3 4 -6 -2 -5 -13z"/>
<path d="M2805 5500 c3 -5 8 -10 11 -10 2 0 4 5 4 10 0 6 -5 10 -11 10 -5 0
-7 -4 -4 -10z"/>
<path d="M360 5490 c0 -5 5 -10 11 -10 5 0 7 5 4 10 -3 6 -8 10 -11 10 -2 0
-4 -4 -4 -10z"/>
<path d="M2901 5471 c-7 -12 -7 -22 -2 -26 5 -3 13 4 16 16 9 28 -1 36 -14 10z"/>
<path d="M402 5460 c0 -14 2 -19 5 -12 2 6 2 18 0 25 -3 6 -5 1 -5 -13z"/>
<path d="M281 5454 c0 -11 3 -14 6 -6 3 7 2 16 -1 19 -3 4 -6 -2 -5 -13z"/>
<path d="M305 5460 c3 -5 8 -10 11 -10 2 0 4 5 4 10 0 6 -5 10 -11 10 -5 0 -7
-4 -4 -10z"/>
<path d="M2926 5455 c-9 -26 -7 -32 5 -12 6 10 9 21 6 23 -2 3 -7 -2 -11 -11z"/>
<path d="M2880 5420 c0 -5 5 -10 11 -10 5 0 7 5 4 10 -3 6 -8 10 -11 10 -2 0
-4 -4 -4 -10z"/>
<path d="M402 5380 c0 -14 2 -19 5 -12 2 6 2 18 0 25 -3 6 -5 1 -5 -13z"/>
<path d="M2881 5354 c0 -11 3 -14 6 -6 3 7 2 16 -1 19 -3 4 -6 -2 -5 -13z"/>
<path d="M2811 5304 c0 -11 3 -14 6 -6 3 7 2 16 -1 19 -3 4 -6 -2 -5 -13z"/>
<path d="M2852 5295 c0 -16 2 -22 5 -12 2 9 2 23 0 30 -3 6 -5 -1 -5 -18z"/>
<path d="M260 5255 c-8 -9 -8 -15 -2 -15 12 0 26 19 19 26 -2 2 -10 -2 -17
-11z"/>
<path d="M2881 5254 c0 -11 3 -14 6 -6 3 7 2 16 -1 19 -3 4 -6 -2 -5 -13z"/>
<path d="M290 5235 c0 -8 5 -15 10 -15 6 0 10 -7 10 -17 0 -9 2 -14 5 -11 9 8
-6 58 -16 58 -5 0 -9 -7 -9 -15z"/>
<path d="M2896 5207 c3 -10 9 -15 12 -12 3 3 0 11 -7 18 -10 9 -11 8 -5 -6z"/>
<path d="M3367 5208 c-22 -12 -22 -57 -1 -65 22 -8 48 9 52 33 3 25 -29 45
-51 32z"/>
<path d="M5620 5212 c-33 -12 -39 -46 -11 -62 40 -21 76 20 44 51 -10 9 -25
14 -33 11z m30 -32 c0 -5 -2 -10 -4 -10 -3 0 -8 5 -11 10 -3 6 -1 10 4 10 6 0
11 -4 11 -10z"/>
<path d="M2841 5184 c0 -11 3 -14 6 -6 3 7 2 16 -1 19 -3 4 -6 -2 -5 -13z"/>
<path d="M2872 5170 c0 -19 2 -27 5 -17 2 9 2 25 0 35 -3 9 -5 1 -5 -18z"/>
<path d="M300 5166 c0 -8 4 -17 8 -20 4 -2 8 4 8 15 0 10 -4 19 -8 19 -4 0 -8
-6 -8 -14z"/>
<path d="M292 5020 c-10 -16 -9 -21 6 -29 14 -7 19 -6 19 4 0 8 -7 11 -16 7
-14 -5 -14 -4 -2 11 8 10 12 19 10 22 -3 2 -10 -5 -17 -15z"/>
<path d="M2861 5014 c0 -11 3 -14 6 -6 3 7 2 16 -1 19 -3 4 -6 -2 -5 -13z"/>
<path d="M260 4997 c0 -2 15 -16 33 -33 l32 -29 -29 33 c-28 30 -36 37 -36 29z"/>
<path d="M381 4984 c0 -11 3 -14 6 -6 3 7 2 16 -1 19 -3 4 -6 -2 -5 -13z"/>
<path d="M2894 4985 c-12 -9 -14 -14 -6 -15 7 0 20 7 28 15 20 19 4 20 -22 0z"/>
<path d="M411 4934 c0 -11 3 -14 6 -6 3 7 2 16 -1 19 -3 4 -6 -2 -5 -13z"/>
<path d="M408 4893 c6 -2 12 -16 12 -29 0 -14 -4 -23 -9 -20 -4 3 -6 -7 -3
-22 5 -22 7 -24 10 -7 2 11 8 23 14 26 13 8 -8 59 -24 58 -10 0 -10 -2 0 -6z"/>
<path d="M2792 4810 c0 -14 2 -19 5 -12 2 6 2 18 0 25 -3 6 -5 1 -5 -13z"/>
<path d="M2878 4775 c-3 -14 -1 -25 3 -25 5 0 9 7 9 16 0 8 5 12 10 9 6 -3 10
1 10 9 0 26 -27 18 -32 -9z"/>
<path d="M370 4774 c0 -3 6 -12 14 -19 12 -12 15 -12 20 1 9 24 7 31 -4 14 -6
-10 -10 -11 -10 -2 0 6 -4 12 -10 12 -5 0 -10 -3 -10 -6z"/>
<path d="M2776 4765 c-3 -8 -1 -25 4 -37 8 -20 9 -18 9 15 1 39 -3 47 -13 22z"/>
<path d="M460 4756 c0 -9 5 -16 10 -16 6 0 10 4 10 9 0 6 -4 13 -10 16 -5 3
-10 -1 -10 -9z"/>
<path d="M2742 4730 c0 -14 2 -19 5 -12 2 6 2 18 0 25 -3 6 -5 1 -5 -13z"/>
<path d="M431 4704 c0 -11 3 -14 6 -6 3 7 2 16 -1 19 -3 4 -6 -2 -5 -13z"/>
<path d="M481 4705 c1 -19 18 -51 18 -35 0 8 -4 22 -9 30 -5 8 -9 11 -9 5z"/>
<path d="M2760 4690 c0 -5 5 -10 11 -10 5 0 7 5 4 10 -3 6 -8 10 -11 10 -2 0
-4 -4 -4 -10z"/>
<path d="M2710 4675 c0 -8 2 -15 4 -15 2 0 6 7 10 15 3 8 1 15 -4 15 -6 0 -10
-7 -10 -15z"/>
<path d="M2802 4660 c0 -14 2 -19 5 -12 2 6 2 18 0 25 -3 6 -5 1 -5 -13z"/>
<path d="M481 4640 c0 -8 4 -22 9 -30 12 -18 12 -2 0 25 -6 13 -9 15 -9 5z"/>
<path d="M2701 4634 c0 -11 3 -14 6 -6 3 7 2 16 -1 19 -3 4 -6 -2 -5 -13z"/>
<path d="M2811 4614 c0 -11 3 -14 6 -6 3 7 2 16 -1 19 -3 4 -6 -2 -5 -13z"/>
<path d="M2671 4584 c-6 -15 -9 -29 -7 -32 3 -2 10 8 16 23 14 36 7 43 -9 9z"/>
<path d="M2717 4599 c7 -7 15 -10 18 -7 3 3 -2 9 -12 12 -14 6 -15 5 -6 -5z"/>
<path d="M522 4579 c2 -7 10 -15 17 -17 8 -3 12 1 9 9 -2 7 -10 15 -17 17 -8
3 -12 -1 -9 -9z"/>
<path d="M2727 4567 c-7 -5 4 -6 26 -2 39 6 52 -9 15 -18 -12 -4 -19 -9 -16
-12 3 -4 23 3 45 15 21 12 30 19 21 16 -10 -3 -18 -1 -18 4 0 12 -55 10 -73
-3z"/>
<path d="M420 4550 c0 -5 7 -10 16 -10 8 0 12 5 9 10 -3 6 -10 10 -16 10 -5 0
-9 -4 -9 -10z"/>
<path d="M2690 4550 c0 -5 5 -10 10 -10 6 0 10 5 10 10 0 6 -4 10 -10 10 -5 0
-10 -4 -10 -10z"/>
<path d="M575 4520 c3 -5 8 -10 11 -10 2 0 4 5 4 10 0 6 -5 10 -11 10 -5 0 -7
-4 -4 -10z"/>
<path d="M2660 4509 c0 -5 5 -7 10 -4 6 3 10 8 10 11 0 2 -4 4 -10 4 -5 0 -10
-5 -10 -11z"/>
<path d="M2627 4469 c-9 -16 -12 -29 -7 -29 6 0 10 5 10 10 0 6 5 10 10 10 6
0 8 -12 5 -27 -3 -16 -2 -21 1 -13 4 8 11 18 16 21 5 3 3 17 -5 31 l-13 26
-17 -29z"/>
<path d="M2692 4470 c0 -14 2 -19 5 -12 2 6 2 18 0 25 -3 6 -5 1 -5 -13z"/>
<path d="M570 4471 c0 -5 7 -15 17 -22 15 -13 15 -12 4 9 -12 23 -21 28 -21
13z"/>
<path d="M543 4405 c0 -22 2 -30 4 -17 2 12 2 30 0 40 -3 9 -5 -1 -4 -23z"/>
<path d="M645 4399 c-11 -16 -1 -19 13 -3 7 8 8 14 3 14 -5 0 -13 -5 -16 -11z"/>
<path d="M2539 4393 c-13 -16 -12 -17 4 -4 9 7 17 15 17 17 0 8 -8 3 -21 -13z"/>
<path d="M2690 4380 c0 -5 5 -10 10 -10 6 0 10 5 10 10 0 6 -4 10 -10 10 -5 0
-10 -4 -10 -10z"/>
<path d="M610 4376 c0 -2 7 -9 15 -16 13 -11 14 -10 9 4 -5 14 -24 23 -24 12z"/>
<path d="M2495 4350 c-10 -11 -14 -20 -9 -20 5 0 17 9 27 20 9 11 13 20 8 20
-4 0 -16 -9 -26 -20z"/>
<path d="M588 4343 c7 -3 16 -2 19 1 4 3 -2 6 -13 5 -11 0 -14 -3 -6 -6z"/>
<path d="M2556 4338 c7 -11 34 -10 34 1 0 6 -9 9 -19 8 -11 0 -17 -5 -15 -9z"/>
<path d="M720 4336 c0 -11 49 -61 55 -55 2 3 -9 18 -25 34 -17 16 -30 25 -30
21z"/>
<path d="M2525 4329 c-4 -6 -5 -12 -2 -15 2 -3 7 2 10 11 7 17 1 20 -8 4z"/>
<path d="M2555 4310 c-3 -5 -1 -10 4 -10 6 0 11 5 11 10 0 6 -2 10 -4 10 -3 0
-8 -4 -11 -10z"/>
<path d="M680 4270 c0 -5 5 -10 10 -10 6 0 10 5 10 10 0 6 -4 10 -10 10 -5 0
-10 -4 -10 -10z"/>
<path d="M2410 4265 c-8 -9 -8 -15 -2 -15 12 0 26 19 19 26 -2 2 -10 -2 -17
-11z"/>
<path d="M2435 4239 c-4 -6 -5 -12 -2 -15 2 -3 7 2 10 11 7 17 1 20 -8 4z"/>
<path d="M3915 4221 c-8 -26 4 -51 25 -51 25 0 43 25 35 50 -8 26 -51 27 -60
1z"/>
<path d="M5035 4219 c-5 -13 -2 -27 8 -36 24 -24 59 -8 55 25 -4 36 -53 45
-63 11z"/>
<path d="M2465 4220 c-3 -5 -1 -10 4 -10 6 0 11 5 11 10 0 6 -2 10 -4 10 -3 0
-8 -4 -11 -10z"/>
<path d="M2415 4190 c-3 -5 1 -10 10 -10 9 0 13 5 10 10 -3 6 -8 10 -10 10 -2
0 -7 -4 -10 -10z"/>
<path d="M728 4183 c7 -3 16 -2 19 1 4 3 -2 6 -13 5 -11 0 -14 -3 -6 -6z"/>
<path d="M2498 4183 c12 -2 32 -2 45 0 12 2 2 4 -23 4 -25 0 -35 -2 -22 -4z"/>
<path d="M810 4155 c0 -8 49 -53 53 -48 6 5 -37 53 -47 53 -3 0 -6 -2 -6 -5z"/>
<path d="M2245 4130 c27 -12 43 -12 25 0 -8 5 -22 9 -30 9 -10 0 -8 -3 5 -9z"/>
<path d="M943 4106 c24 -26 47 -34 47 -18 0 7 -17 18 -63 40 -4 2 3 -8 16 -22z"/>
<path d="M2174 4095 c-18 -13 -18 -14 4 -8 12 3 25 9 28 14 8 14 -10 11 -32
-6z"/>
<path d="M2377 4093 c-4 -3 -7 -13 -7 -22 1 -13 3 -13 11 2 11 19 8 33 -4 20z"/>
<path d="M4476 4075 c-9 -24 -7 -37 4 -30 6 3 7 -1 4 -9 -4 -11 0 -16 12 -16
30 0 46 16 42 41 -4 29 -52 40 -62 14z"/>
<path d="M2210 4070 c0 -5 4 -10 9 -10 6 0 13 5 16 10 3 6 -1 10 -9 10 -9 0
-16 -4 -16 -10z"/>
<path d="M1120 4055 c14 -8 30 -14 35 -14 6 0 -1 6 -15 14 -14 8 -29 14 -35
14 -5 0 1 -6 15 -14z"/>
<path d="M2341 4054 c0 -11 3 -14 6 -6 3 7 2 16 -1 19 -3 4 -6 -2 -5 -13z"/>
<path d="M2078 4053 c7 -3 16 -2 19 1 4 3 -2 6 -13 5 -11 0 -14 -3 -6 -6z"/>
<path d="M1023 4005 c-6 -6 -8 -18 -3 -24 5 -9 9 -5 13 10 7 28 6 31 -10 14z"/>
<path d="M1230 4010 c8 -5 22 -9 30 -9 10 0 8 3 -5 9 -27 12 -43 12 -25 0z"/>
<path d="M2196 4003 c-6 -14 -5 -15 5 -6 7 7 10 15 7 18 -3 3 -9 -2 -12 -12z"/>
<path d="M1915 4000 c-3 -6 1 -7 9 -4 18 7 21 14 7 14 -6 0 -13 -4 -16 -10z"/>
<path d="M1345 3980 c28 -12 37 -12 30 0 -3 6 -16 10 -28 9 -21 0 -21 -1 -2
-9z"/>
<path d="M1935 3980 c-18 -8 -18 -9 5 -9 14 0 34 4 45 9 18 8 18 9 -5 9 -14 0
-34 -4 -45 -9z"/>
<path d="M2176 3965 c-3 -8 -1 -15 4 -15 6 0 10 7 10 15 0 8 -2 15 -4 15 -2 0
-6 -7 -10 -15z"/>
<path d="M1425 3960 c3 -5 8 -10 11 -10 2 0 4 5 4 10 0 6 -5 10 -11 10 -5 0
-7 -4 -4 -10z"/>
<path d="M1138 3953 c7 -3 16 -2 19 1 4 3 -2 6 -13 5 -11 0 -14 -3 -6 -6z"/>
<path d="M1910 3951 c0 -6 4 -13 10 -16 6 -3 7 1 4 9 -7 18 -14 21 -14 7z"/>
<path d="M2078 3953 c7 -3 16 -2 19 1 4 3 -2 6 -13 5 -11 0 -14 -3 -6 -6z"/>
<path d="M1795 3940 c3 -5 8 -10 11 -10 2 0 4 5 4 10 0 6 -5 10 -11 10 -5 0
-7 -4 -4 -10z"/>
<path d="M1955 3930 c-27 -29 -15 -32 20 -4 20 16 25 24 14 24 -9 0 -24 -9
-34 -20z"/>
<path d="M1048 3933 c7 -3 16 -2 19 1 4 3 -2 6 -13 5 -11 0 -14 -3 -6 -6z"/>
<path d="M1250 3932 c0 -5 7 -16 16 -23 14 -12 16 -11 13 5 -4 20 -29 35 -29
18z"/>
<path d="M1400 3930 c0 -5 7 -10 16 -10 8 0 12 5 9 10 -3 6 -10 10 -16 10 -5
0 -9 -4 -9 -10z"/>
<path d="M1230 3900 c0 -5 5 -10 10 -10 6 0 10 5 10 10 0 6 -4 10 -10 10 -5 0
-10 -4 -10 -10z"/>
<path d="M1860 3902 c1 -4 21 -16 45 -28 l44 -21 28 29 c15 15 22 28 15 28 -6
0 -16 -9 -22 -20 -12 -23 -33 -26 -52 -7 -15 15 -58 29 -58 19z"/>
<path d="M1258 3868 c5 -5 16 -8 23 -6 8 3 3 7 -10 11 -17 4 -21 3 -13 -5z"/>
<path d="M1458 3873 c7 -3 16 -2 19 1 4 3 -2 6 -13 5 -11 0 -14 -3 -6 -6z"/>
<path d="M1508 3873 c6 -2 18 -2 25 0 6 3 1 5 -13 5 -14 0 -19 -2 -12 -5z"/>
<path d="M1765 3869 c-11 -16 -1 -19 13 -3 7 8 8 14 3 14 -5 0 -13 -5 -16 -11z"/>
<path d="M1725 3830 c-3 -5 -2 -10 4 -10 5 0 13 5 16 10 3 6 2 10 -4 10 -5 0
-13 -4 -16 -10z"/>
<path d="M1352 3784 c-17 -9 -52 -44 -76 -78 -76 -106 -115 -126 -197 -102
l-54 16 25 -21 25 -20 -70 4 c-38 3 -89 11 -113 20 -48 17 -113 58 -107 68 5
8 94 -6 142 -22 19 -6 37 -9 40 -6 9 10 -128 47 -173 47 -38 0 -44 -3 -44 -22
0 -29 72 -95 139 -127 53 -24 65 -26 206 -26 166 0 162 1 300 -91 28 -18 78
-46 110 -61 56 -26 69 -28 180 -27 137 1 198 16 480 121 160 60 243 83 365
104 43 8 363 13 950 16 l886 4 17 -36 c48 -100 199 -100 253 0 l19 36 875 -4
c755 -3 888 -6 969 -20 90 -16 219 -58 454 -146 164 -62 255 -82 371 -83 121
0 149 9 296 101 128 80 167 94 210 80 49 -17 205 -6 271 20 60 23 164 112 156
134 -8 23 -116 12 -220 -22 -54 -18 -96 -35 -93 -38 3 -3 33 4 66 16 69 25
192 53 200 45 3 -3 -8 -17 -25 -30 -56 -45 -235 -80 -253 -48 -6 11 -14 13
-33 6 -51 -19 -113 21 -184 121 -37 53 -73 77 -112 77 -8 0 -45 -31 -83 -69
-53 -53 -78 -71 -113 -80 -64 -16 -171 -14 -262 5 -42 9 -79 13 -82 11 -3 -3
33 -18 79 -32 161 -53 327 -36 419 41 22 19 45 34 49 34 4 0 20 -21 36 -47 15
-27 45 -65 67 -85 35 -33 38 -38 21 -44 -10 -4 -80 -31 -156 -60 -75 -30 -156
-57 -181 -60 -73 -10 -190 22 -485 135 -142 54 -250 84 -347 97 -33 4 -477 6
-986 5 l-927 -2 -18 37 c-23 47 -72 77 -129 78 -51 1 -88 -22 -125 -79 l-25
-38 -900 6 c-586 4 -932 3 -990 -4 -124 -14 -229 -41 -386 -100 -266 -101
-331 -120 -414 -126 -69 -5 -90 -2 -150 20 -124 45 -255 101 -255 110 0 4 14
20 31 34 17 14 44 50 61 80 16 29 32 53 35 53 2 0 23 -15 46 -34 72 -57 104
-69 208 -74 76 -3 113 0 185 18 156 39 152 52 -8 24 -163 -28 -264 -4 -333 80
-31 38 -81 77 -97 76 -2 0 -18 -8 -36 -16z"/>
<path d="M990 3630 c8 -5 20 -10 25 -10 6 0 3 5 -5 10 -8 5 -19 10 -25 10 -5
0 -3 -5 5 -10z"/>
<path d="M2418 3413 c12 -2 32 -2 45 0 12 2 2 4 -23 4 -25 0 -35 -2 -22 -4z"/>
<path d="M2678 3413 c67 -2 177 -2 245 0 67 1 12 3 -123 3 -135 0 -190 -2
-122 -3z"/>
<path d="M3298 3413 c56 -2 148 -2 205 0 56 1 10 3 -103 3 -113 0 -159 -2
-102 -3z"/>
<path d="M3858 3413 c100 -2 264 -2 365 0 100 1 18 2 -183 2 -201 0 -283 -1
-182 -2z"/>
<path d="M4468 3413 c12 -2 32 -2 45 0 12 2 2 4 -23 4 -25 0 -35 -2 -22 -4z"/>
<path d="M4573 3413 c9 -2 23 -2 30 0 6 3 -1 5 -18 5 -16 0 -22 -2 -12 -5z"/>
<path d="M5083 3413 c71 -2 183 -2 250 0 67 1 10 3 -128 3 -137 0 -192 -2
-122 -3z"/>
<path d="M5598 3413 c45 -2 119 -2 165 0 45 1 8 3 -83 3 -91 0 -128 -2 -82 -3z"/>
<path d="M6178 3413 c56 -2 148 -2 205 0 56 1 10 3 -103 3 -113 0 -159 -2
-102 -3z"/>
<path d="M6586 3407 c2 -7 -27 -60 -66 -118 -38 -57 -70 -110 -70 -116 0 -7
-4 -13 -8 -13 -5 0 -17 -17 -28 -37 -10 -21 -31 -49 -45 -63 -15 -14 -34 -39
-43 -57 -18 -36 -58 -67 -98 -77 -21 -5 -30 -16 -40 -49 -17 -57 -102 -143
-151 -152 -46 -9 -101 10 -125 42 l-18 25 -33 -31 c-18 -17 -48 -33 -67 -37
-41 -8 -91 11 -99 37 -6 19 -25 27 -25 11 0 -13 -75 -52 -98 -52 -23 0 -72 20
-72 29 0 3 -4 12 -9 20 -8 12 -15 10 -40 -12 -59 -49 -141 -45 -165 9 -9 21
-10 21 -50 -7 -77 -52 -184 -47 -245 10 l-31 29 -33 -33 c-60 -60 -152 -56
-178 7 -10 24 -9 52 1 143 13 116 11 145 -13 145 -32 0 -51 -28 -58 -86 -3
-33 -12 -101 -20 -151 -13 -93 -13 -93 -45 -99 -56 -10 -81 15 -76 76 1 8 9
59 18 113 17 108 14 147 -14 147 -41 0 -53 -23 -73 -140 -11 -63 -20 -130 -21
-148 -2 -52 -72 -74 -101 -31 l-15 20 -38 -20 c-21 -12 -49 -21 -61 -21 -31 0
-73 21 -73 37 0 19 -14 16 -56 -12 -41 -28 -57 -30 -101 -14 -46 16 -66 62
-61 140 l4 64 -53 -3 c-45 -3 -55 0 -79 23 -26 26 -29 52 -9 98 5 12 3 17 -8
17 -39 0 -57 -33 -77 -149 -12 -62 -21 -129 -22 -148 -1 -27 -7 -37 -25 -44
-36 -13 -51 -11 -73 11 -20 20 -20 20 -52 0 -46 -28 -100 -26 -129 4 -23 24
-24 24 -49 6 -38 -27 -74 -33 -114 -20 -47 15 -71 76 -63 157 4 40 3 53 -5 45
-13 -13 -15 -86 -5 -158 7 -49 6 -52 -29 -87 -48 -47 -92 -67 -151 -67 -138 1
-233 124 -221 289 6 72 32 169 60 216 10 17 26 46 37 65 21 37 96 113 121 123
12 4 11 6 -3 6 -10 1 -40 -21 -67 -48 -27 -27 -52 -46 -56 -42 -4 3 -4 0 0 -7
6 -10 -22 -62 -44 -82 -3 -3 -19 -45 -35 -95 -38 -114 -40 -225 -7 -295 27
-56 43 -81 61 -96 9 -7 11 -16 6 -24 -6 -10 -4 -12 8 -7 9 3 37 -3 61 -14 51
-22 122 -27 153 -11 11 6 23 8 27 5 3 -3 23 10 43 30 20 21 40 37 45 37 5 0 6
5 3 11 -4 6 2 13 14 16 11 3 18 10 14 16 -3 5 -1 7 5 3 6 -3 34 -11 64 -16 57
-11 98 0 98 27 0 9 10 5 27 -12 22 -19 38 -25 75 -25 27 0 48 4 48 9 0 5 16 9
35 9 19 0 32 -4 29 -9 -3 -5 13 -9 34 -9 60 0 81 23 88 97 4 34 11 60 16 57 5
-3 6 6 2 20 -3 15 -2 32 4 39 16 20 26 61 13 53 -13 -8 -14 -4 -5 18 8 20 24
21 24 2 0 -8 11 -27 24 -42 17 -21 35 -29 72 -33 45 -6 49 -8 47 -31 -1 -14 3
-48 9 -75 13 -64 63 -105 127 -105 23 0 41 4 41 9 0 25 109 16 135 -11 4 -3
22 -2 41 3 19 6 40 7 47 3 8 -5 7 -2 -2 9 -18 22 -4 21 45 -2 28 -14 41 -16
46 -8 4 7 8 8 8 3 0 -5 6 -3 14 3 11 9 15 9 19 -1 4 -9 6 -8 6 3 1 9 9 20 18
23 10 4 13 10 8 14 -15 11 -17 33 -4 48 6 8 9 21 5 29 -9 24 5 106 17 98 5 -3
7 -1 4 4 -4 6 -4 32 -1 57 6 39 10 46 29 46 22 0 22 0 9 -97 -6 -54 -15 -106
-19 -116 -4 -9 -4 -33 -1 -52 9 -44 52 -70 99 -59 18 4 38 7 45 5 7 -1 12 2
11 6 -1 4 0 10 1 13 1 3 3 19 5 35 1 17 5 44 9 60 6 23 5 26 -3 15 -9 -13 -11
-13 -11 2 0 9 7 23 15 31 8 8 14 32 15 53 2 81 5 104 18 109 15 5 16 -66 2
-135 -12 -61 -2 -134 23 -160 12 -14 16 -24 9 -29 -6 -3 25 -7 68 -7 53 -1 78
3 77 10 -1 6 6 10 16 8 9 -2 16 1 15 5 -2 4 0 8 4 8 4 0 14 9 23 20 12 14 15
16 12 4 -4 -11 0 -16 11 -15 9 0 16 -5 14 -12 -1 -8 2 -11 7 -8 13 9 42 -4 35
-16 -10 -17 148 3 190 23 21 11 41 17 44 14 3 -3 1 -5 -4 -5 -14 -1 57 -31 93
-40 21 -5 31 -4 27 2 -4 6 9 7 33 3 22 -4 33 -3 26 2 -10 7 -8 13 7 26 19 16
21 16 32 -3 7 -11 19 -20 26 -20 7 0 11 -4 8 -9 -8 -13 96 9 126 27 24 14 29
14 50 0 29 -19 128 -32 128 -16 0 5 7 8 15 4 9 -3 15 0 15 8 0 16 50 31 59 18
12 -19 49 -31 111 -36 44 -4 59 -3 45 3 -18 9 -18 10 6 10 15 1 29 8 33 16 3
8 12 15 19 15 7 0 20 11 27 25 7 14 17 25 22 25 4 0 8 6 8 14 0 8 5 16 12 18
6 2 12 15 14 29 1 13 3 27 3 30 1 3 25 15 55 28 30 12 57 28 59 36 6 15 76
124 204 316 80 122 94 159 57 159 -7 0 -11 -6 -8 -13z"/>
<path d="M2426 3375 c4 -8 10 -12 15 -9 11 6 2 24 -11 24 -5 0 -7 -7 -4 -15z"/>
<path d="M3076 3362 c-2 -4 24 -7 59 -7 53 0 67 -4 89 -24 54 -50 23 -157 -42
-149 -21 2 -28 9 -30 29 -2 15 4 34 13 43 23 23 15 50 -15 54 -37 4 -104 -48
-140 -110 -42 -73 -79 -200 -86 -294 -10 -130 18 -190 98 -212 30 -8 44 -7 76
9 41 21 83 59 65 59 -6 0 -16 -7 -24 -16 -18 -22 -64 -44 -94 -44 -15 0 -39
13 -57 31 -26 24 -33 39 -33 69 0 22 -3 33 -7 27 -4 -7 -8 12 -8 41 0 28 3 52
8 52 4 0 8 10 8 23 2 36 32 130 44 137 6 4 8 14 5 22 -4 9 -2 19 4 23 6 3 11
13 11 21 0 16 9 29 50 72 13 15 23 31 22 36 -2 5 4 6 12 3 8 -3 17 1 20 9 3 8
13 14 23 14 10 0 14 -4 8 -8 -24 -17 -23 -89 1 -107 22 -17 60 -19 69 -5 4 6
16 8 28 5 16 -5 18 -4 8 3 -11 8 -11 14 3 33 17 25 23 114 7 104 -5 -3 -12 4
-16 15 -4 11 -19 27 -35 35 -30 16 -135 21 -144 7z"/>
<path d="M5320 3310 c-10 -6 -2 -7 25 -3 49 7 58 13 19 13 -16 0 -36 -5 -44
-10z"/>
<path d="M5426 3310 c41 -16 41 -18 -7 -289 -36 -204 -37 -221 -6 -221 35 0
63 40 71 101 4 30 11 68 15 84 16 53 21 95 12 95 -5 0 -11 -15 -14 -32 -16
-100 -38 -195 -48 -215 -12 -23 -39 -21 -39 4 0 8 4 12 9 8 6 -3 7 9 4 31 -4
26 -3 35 5 30 6 -4 10 1 10 11 -1 33 13 127 20 133 4 3 8 29 9 57 1 29 6 61
11 70 6 10 6 40 2 67 -7 50 -29 77 -59 75 -11 0 -9 -3 5 -9z"/>
<path d="M5289 3275 c-3 -11 -2 -31 2 -45 4 -16 7 -19 8 -7 1 9 6 17 11 17 13
0 12 -15 -9 -140 -9 -58 -20 -98 -23 -90 -3 8 -4 -6 -3 -31 5 -72 -10 -120
-47 -151 -40 -33 -96 -38 -121 -10 -22 24 -22 38 0 21 14 -12 16 -12 11 2 -5
12 0 14 26 11 24 -3 28 -1 16 7 -13 10 -13 11 0 12 8 1 22 0 30 -1 8 -1 12 1
8 6 -4 4 2 15 14 25 11 11 18 19 14 19 -4 0 4 10 17 23 21 19 24 30 22 73 -4
87 -39 125 -115 123 l-45 -2 42 -6 c24 -4 54 -18 69 -32 22 -21 25 -30 22 -70
-3 -28 -14 -59 -27 -75 -28 -36 -89 -74 -119 -74 -30 0 -38 -24 -18 -56 26
-38 58 -49 106 -35 83 25 89 36 125 247 17 104 35 197 40 207 6 15 4 17 -18
12 -21 -6 -26 -3 -29 17 -3 21 -4 21 -9 3z"/>
<path d="M5575 3280 c-28 -11 -41 -29 -49 -67 -6 -25 -3 -36 13 -52 12 -12 17
-21 11 -21 -5 0 -10 -3 -10 -7 0 -5 22 -8 49 -8 58 0 68 -7 53 -38 -16 -31
-56 -253 -48 -272 8 -22 39 -18 64 8 14 16 24 45 32 103 6 45 15 96 20 115 13
45 13 49 -5 49 -22 0 -18 31 4 37 11 3 22 15 25 26 9 35 7 40 -9 27 -19 -16
-39 -1 -30 22 14 36 110 51 140 22 11 -11 15 -30 14 -58 -3 -35 0 -41 15 -38
13 2 17 -2 14 -15 -2 -10 -12 -17 -21 -17 -19 2 -18 3 -41 -126 -24 -131 -24
-164 -3 -168 33 -7 54 24 60 87 5 61 54 180 73 181 7 0 14 7 18 15 3 8 12 15
19 15 8 0 20 7 27 15 18 22 5 19 -39 -9 -21 -14 -47 -42 -59 -63 -11 -21 -24
-37 -28 -36 -5 1 -10 -8 -10 -20 -4 -73 -19 -149 -31 -158 -20 -17 -23 -8 -12
39 5 24 6 48 3 54 -4 6 -2 8 4 4 7 -4 11 2 11 16 0 13 1 32 1 43 1 29 20 85
30 85 5 0 11 -6 14 -12 3 -7 5 -4 4 7 -1 11 4 30 10 43 7 12 9 22 5 21 -23 -6
-43 15 -43 45 0 53 -20 71 -82 71 -29 0 -65 -4 -79 -8 -21 -7 -27 -4 -37 17
-6 14 -19 26 -27 26 -14 0 -14 -3 1 -25 28 -44 -4 -95 -62 -95 -28 0 -35 4
-40 25 -12 50 6 78 58 89 3 0 10 4 14 9 10 9 -15 8 -41 -3z m115 -135 c0 -30
-10 -37 -33 -20 -17 13 -18 14 -1 34 21 24 34 19 34 -14z m-7 -180 c-11 -76
-22 -116 -34 -129 -10 -11 -21 -18 -24 -15 -8 9 7 129 15 124 4 -3 7 19 7 47
-1 32 4 53 11 56 7 2 12 16 12 30 0 23 2 24 15 12 12 -13 12 -29 -2 -125z"/>
<path d="M2510 3240 c0 -5 5 -10 11 -10 5 0 7 5 4 10 -3 6 -8 10 -11 10 -2 0
-4 -4 -4 -10z"/>
<path d="M2546 3197 c3 -10 9 -15 12 -12 3 3 0 11 -7 18 -10 9 -11 8 -5 -6z"/>
<path d="M3520 3141 c0 -4 12 -13 26 -20 20 -9 24 -15 15 -25 -18 -22 -64
-277 -52 -289 5 -5 19 -7 31 -5 32 4 56 57 70 148 6 41 13 89 17 105 6 28 5
29 -11 16 -15 -13 -19 -13 -26 -1 -6 10 -2 22 12 37 28 30 99 32 127 4 19 -19
41 -12 41 13 0 5 -3 7 -6 3 -4 -3 -21 0 -38 7 -38 15 -104 9 -128 -12 -10 -8
-18 -11 -18 -6 0 5 -13 15 -30 21 -16 6 -30 8 -30 4z m86 -125 c-3 -11 -9 -38
-12 -59 -4 -21 -10 -34 -13 -29 -3 6 -6 -11 -6 -37 0 -53 -21 -90 -39 -70 -8
8 -8 13 0 16 7 2 9 13 7 24 -7 26 17 130 29 123 4 -3 8 5 8 18 0 19 -2 20 -11
8 -9 -12 -10 -12 -5 3 3 10 6 22 6 27 0 4 9 6 21 3 15 -4 19 -11 15 -27z"/>
<path d="M4118 3140 c-52 -6 -79 -27 -135 -102 -19 -27 -39 -48 -45 -48 -6 0
-5 6 2 15 14 17 20 75 8 75 -5 0 -8 6 -8 14 0 28 -42 46 -100 45 -30 -1 -41
-4 -25 -6 85 -10 96 -14 106 -40 7 -20 5 -35 -10 -65 -16 -34 -17 -41 -4 -53
12 -13 17 -13 38 1 13 9 36 35 50 60 45 76 143 117 188 77 18 -17 19 -17 28 0
11 19 59 23 91 6 16 -9 19 -8 16 2 -7 22 -78 32 -98 14 -13 -12 -20 -12 -36
-2 -12 8 -36 11 -66 7z"/>
<path d="M2585 3130 c3 -5 8 -10 11 -10 2 0 4 5 4 10 0 6 -5 10 -11 10 -5 0
-7 -4 -4 -10z"/>
<path d="M3316 3121 c-16 -11 -33 -28 -38 -38 -8 -16 -8 -16 4 -2 34 42 122
63 150 36 10 -10 20 -9 48 5 22 11 28 18 17 18 -10 0 -27 -5 -37 -10 -13 -7
-21 -7 -25 0 -11 17 -88 11 -119 -9z"/>
<path d="M4349 3124 c-15 -8 -32 -21 -39 -29 -13 -15 -46 -173 -52 -246 -3
-39 0 -44 19 -47 34 -5 60 29 68 89 4 30 13 81 21 114 17 76 17 80 -2 64 -13
-10 -17 -10 -24 1 -21 34 35 66 100 57 22 -3 40 -1 40 4 0 14 -102 9 -131 -7z
m-5 -82 c8 -13 -15 -195 -27 -209 -16 -21 -37 -15 -37 11 0 13 4 26 9 28 15 6
24 48 9 48 -9 0 -10 2 -1 8 9 6 15 33 22 115 1 10 19 9 25 -1z"/>
<path d="M4527 3129 c-9 -5 -21 -8 -26 -4 -13 7 -24 -12 -16 -26 5 -7 13 -5
24 5 39 36 114 32 152 -7 15 -15 23 -18 26 -9 7 20 59 42 97 42 22 0 45 -9 63
-24 26 -22 28 -30 28 -93 0 -37 -4 -101 -9 -140 l-9 -73 25 0 c35 0 58 30 63
81 7 62 33 135 62 169 14 17 20 30 15 30 -11 0 -52 -52 -52 -67 -1 -4 -9 -26
-20 -48 -11 -22 -19 -57 -20 -77 0 -46 -8 -68 -26 -68 -11 0 -13 12 -8 58 4
31 11 62 15 68 5 6 6 14 2 18 -4 4 -6 22 -5 41 4 36 -17 84 -49 116 -26 26
-135 28 -155 2 -12 -17 -14 -17 -42 0 -33 19 -107 22 -135 6z"/>
<path d="M5240 3130 c0 -5 5 -10 11 -10 5 0 7 5 4 10 -3 6 -8 10 -11 10 -2 0
-4 -4 -4 -10z"/>
<path d="M6070 3131 c25 -4 57 -13 71 -19 28 -11 59 -66 59 -104 0 -34 6 -37
46 -25 22 7 41 21 50 39 8 15 21 28 30 28 9 0 12 5 8 11 -4 7 -21 -4 -44 -30
-21 -23 -42 -41 -48 -41 -10 0 -32 59 -32 86 0 6 -11 17 -25 24 -13 7 -22 16
-20 20 5 8 2 8 -80 14 -53 4 -54 4 -15 -3z"/>
<path d="M5059 3109 c-19 -16 -20 -18 -4 -10 34 17 51 31 39 31 -7 0 -22 -9
-35 -21z"/>
<path d="M3232 3040 c-13 -16 -25 -44 -28 -62 -5 -26 0 -21 24 27 35 67 36 79
4 35z"/>
<path d="M5124 3048 c-36 -41 -42 -53 -49 -90 -6 -31 -4 -38 9 -38 10 0 16 9
16 23 0 16 3 18 9 9 18 -28 71 29 71 76 0 18 -18 42 -30 42 -4 0 -15 -10 -26
-22z m36 -31 c0 -30 -24 -62 -39 -53 -7 5 -8 13 -1 25 5 10 6 21 2 25 -3 4 1
4 11 0 13 -5 16 -2 11 10 -3 9 -1 16 5 16 6 0 11 -10 11 -23z"/>
<path d="M3372 3048 c-19 -25 -49 -94 -61 -142 -16 -65 -7 -106 24 -106 32 0
50 33 67 128 13 71 13 82 1 82 -8 0 -11 -4 -8 -10 3 -5 3 -27 -1 -47 -7 -36
-8 -37 -15 -13 -6 16 -6 11 -3 -17 7 -52 -11 -114 -31 -107 -24 9 -25 34 -5
76 11 23 18 44 15 46 -3 3 -5 -1 -5 -8 0 -7 -3 -11 -6 -8 -10 11 48 106 62
101 9 -3 14 2 14 16 0 24 -31 29 -48 9z"/>
<path d="M4129 3048 c-41 -34 -88 -173 -75 -223 8 -33 48 -34 69 -1 21 31 33
96 18 96 -6 0 -11 -11 -11 -25 0 -50 -36 -95 -54 -67 -7 11 13 79 36 120 10
18 18 41 18 52 0 10 4 21 9 25 6 3 8 -13 6 -39 -3 -25 0 -48 5 -51 6 -4 10 6
10 22 0 15 3 45 6 66 7 40 -7 49 -37 25z"/>
<path d="M6037 3020 c-50 -59 -61 -201 -17 -215 43 -14 66 9 99 96 7 19 3 30
-15 52 -15 18 -24 41 -24 63 0 42 -11 43 -43 4z m33 -39 c0 -11 5 -23 11 -26
6 -4 8 -13 5 -21 -3 -8 0 -11 9 -8 11 5 11 -2 3 -38 -14 -54 -43 -85 -63 -68
-17 14 -20 85 -5 95 5 3 7 12 3 20 -3 8 -2 23 1 32 6 15 8 15 17 3 8 -11 9
-10 4 8 -4 13 -2 22 4 22 6 0 11 -9 11 -19z"/>
<path d="M2687 2926 c-4 -10 -1 -13 9 -9 15 6 19 23 5 23 -5 0 -11 -7 -14 -14z"/>
<path d="M2952 2880 c0 -14 2 -19 5 -12 2 6 2 18 0 25 -3 6 -5 1 -5 -13z"/>
<path d="M4100 2865 c0 -8 2 -15 4 -15 2 0 6 7 10 15 3 8 1 15 -4 15 -6 0 -10
-7 -10 -15z"/>
<path d="M2636 2853 c-6 -14 -5 -15 5 -6 7 7 10 15 7 18 -3 3 -9 -2 -12 -12z"/>
<path d="M3330 2851 c0 -6 4 -13 10 -16 6 -3 7 1 4 9 -7 18 -14 21 -14 7z"/>
<path d="M6368 2834 c10 -20 42 -52 42 -42 0 3 -12 18 -26 34 -17 19 -22 22
-16 8z"/>
<path d="M2585 2770 c-3 -5 -1 -10 4 -10 6 0 11 5 11 10 0 6 -2 10 -4 10 -3 0
-8 -4 -11 -10z"/>
<path d="M6415 2760 c3 -5 11 -10 16 -10 6 0 7 5 4 10 -3 6 -11 10 -16 10 -6
0 -7 -4 -4 -10z"/>
<path d="M2526 2679 c-15 -22 -26 -42 -24 -45 3 -2 18 14 33 36 15 22 26 42
24 44 -2 3 -17 -14 -33 -35z"/>
<path d="M3288 2683 c7 -3 16 -2 19 1 4 3 -2 6 -13 5 -11 0 -14 -3 -6 -6z"/>
<path d="M5138 2683 c6 -2 18 -2 25 0 6 3 1 5 -13 5 -14 0 -19 -2 -12 -5z"/>
<path d="M6510 2610 c0 -5 5 -10 11 -10 5 0 7 5 4 10 -3 6 -8 10 -11 10 -2 0
-4 -4 -4 -10z"/>
<path d="M2441 2550 c-12 -17 -17 -30 -12 -30 10 0 45 50 39 56 -3 2 -14 -10
-27 -26z"/>
<path d="M6560 2531 c0 -5 7 -12 16 -15 14 -5 15 -4 4 9 -14 17 -20 19 -20 6z"/>
<path d="M2405 2500 c-3 -5 -1 -10 4 -10 6 0 11 5 11 10 0 6 -2 10 -4 10 -3 0
-8 -4 -11 -10z"/>
<path d="M2419 2478 c-10 -4 -19 -10 -19 -13 0 -3 950 -5 2111 -5 1684 0 2110
3 2106 13 -3 9 -430 12 -2091 12 -1148 0 -2096 -3 -2107 -7z"/>
</g>
</svg>
